<?xml version="1.0" encoding="UTF-8" standalone="no"?>
<!-- Created with Inkscape (http://www.inkscape.org/) -->

<svg
   width="53.759338mm"
   height="53.759342mm"
   viewBox="0 0 203.18491 203.18491"
   version="1.1"
   id="svg1"
   sodipodi:docname="ccyc.svg"
   inkscape:version="1.4 (e7c3feb1, 2024-10-09)"
   xmlns:inkscape="http://www.inkscape.org/namespaces/inkscape"
   xmlns:sodipodi="http://sodipodi.sourceforge.net/DTD/sodipodi-0.dtd"
   xmlns="http://www.w3.org/2000/svg"
   xmlns:svg="http://www.w3.org/2000/svg">
  <sodipodi:namedview
     id="namedview1"
     pagecolor="#ffffff"
     bordercolor="#000000"
     borderopacity="0.25"
     inkscape:showpageshadow="2"
     inkscape:pageopacity="0.0"
     inkscape:pagecheckerboard="0"
     inkscape:deskcolor="#d1d1d1"
     inkscape:document-units="mm"
     inkscape:zoom="2.6591077"
     inkscape:cx="101.72585"
     inkscape:cy="101.72585"
     inkscape:window-width="1200"
     inkscape:window-height="1186"
     inkscape:window-x="1721"
     inkscape:window-y="25"
     inkscape:window-maximized="0"
     inkscape:current-layer="svg1" />
  <defs
     id="defs1" />
  <g
     id="layer1"
     transform="translate(-198,-203)">
    <path
       id="path8"
       style="fill:none;stroke:#000000;stroke-width:0.898012;stroke-linecap:round;stroke-linejoin:round"
       d="m 370.8756,304.59246 a 71.283147,71.283147 0 0 1 -71.28313,71.28314 71.283147,71.283147 0 0 1 -71.28315,-71.28314 71.283147,71.283147 0 0 1 71.28315,-71.28314 71.283147,71.283147 0 0 1 71.28313,71.28314 z m 1.69032,0 a 72.973473,72.973473 0 0 1 -72.97345,72.97346 72.973473,72.973473 0 0 1 -72.97348,-72.97346 72.973473,72.973473 0 0 1 72.97348,-72.97346 72.973473,72.973473 0 0 1 72.97345,72.97346 z m 25.82718,0 a 98.800622,98.800622 0 0 1 -98.80063,98.80064 98.800622,98.800622 0 0 1 -98.80063,-98.80064 98.800622,98.800622 0 0 1 98.80063,-98.80063 98.800622,98.800622 0 0 1 98.80063,98.80063 z m 2.34281,0 A 101.14346,101.14346 0 0 1 299.59247,405.73591 101.14346,101.14346 0 0 1 198.44901,304.59246 101.14346,101.14346 0 0 1 299.59247,203.44901 101.14346,101.14346 0 0 1 400.73591,304.59246 Z" />
    <path
       id="path9"
       style="opacity:0.513011;fill:none;stroke:none;stroke-width:1.25553;stroke-linecap:round;stroke-linejoin:round"
       d="m 221.7915,302.30014 a 77.834732,77.834732 0 0 1 80.09332,-75.50865 77.834732,77.834732 0 0 1 75.50862,80.09333 77.834732,77.834732 0 0 1 -80.09333,75.50862 77.834732,77.834732 0 0 1 -75.50861,-80.0933 z" />
    <path
       id="path10"
       style="opacity:0.408889;fill:none;stroke:none;stroke-width:1.63385;stroke-linecap:round;stroke-linejoin:round"
       d="M 220.45605,352.72588 A 92.625029,92.625029 0 0 0 347.72588,383.72886 92.625029,92.625029 0 0 0 378.72886,256.45904 92.625029,92.625029 0 0 0 251.45907,225.45603 92.625029,92.625029 0 0 0 220.45605,352.72588 Z" />
    <path
       id="text15"
       style="-inkscape-font-specification:'Copperplate, Normal';stroke-width:14.3787;stroke-linecap:round;stroke-linejoin:round"
       d="m 283.54168,366.68111 h -0.28985 q 0,-0.2657 -0.24155,-0.28989 -0.2174,-0.0227 -0.48309,-0.0227 h -10.16913 q -0.2657,0 -0.43479,0.0227 -0.16909,0.0484 -0.16909,0.2657 h -0.28986 v -0.86956 q 0,-1.2802 0.62803,-2.1981 0.65217,-0.91785 1.61836,-1.61835 0.96619,-0.7005 2.0773,-1.2319 1.11112,-0.5314 2.07731,-1.03865 0.96618,-0.5314 1.59421,-1.08696 0.65218,-0.55555 0.65218,-1.30435 0,-0.50725 -0.24155,-0.82125 -0.2174,-0.33827 -0.57971,-0.5314 -0.36231,-0.21733 -0.79711,-0.28989 -0.43479,-0.0726 -0.84541,-0.0726 -0.41063,0 -1.0145,0.14513 -0.60387,0.14476 -1.15943,0.4348 -0.55555,0.28989 -0.96618,0.70046 -0.38648,0.38649 -0.38648,0.89374 0,0.12057 0.0483,0.31408 0.0725,0.19314 0.1691,0.2657 l -0.24155,0.16895 -2.48794,-2.65705 0.24155,-0.16894 q 0.0966,0.0484 0.19325,0.0967 0.0966,0.0484 0.2174,0.0484 0.14494,0 0.5314,-0.36245 0.38648,-0.36246 1.06281,-0.79711 0.67633,-0.43479 1.69083,-0.7971 1.0145,-0.36246 2.41547,-0.36246 0.91788,0 1.78745,0.21733 0.89372,0.21732 1.57005,0.70049 0.70049,0.45895 1.11112,1.20775 0.43478,0.72461 0.43478,1.78742 0,1.13529 -0.43478,1.88409 -0.43479,0.7488 -1.15943,1.2802 -0.70048,0.50725 -1.59421,0.86956 -0.89372,0.36246 -1.83575,0.72465 -0.91788,0.33827 -1.78745,0.72465 -0.84542,0.38645 -1.49759,0.99031 v 0.24151 h 7.97105 q 0.2657,0 0.48309,-0.0968 0.24155,-0.0967 0.24155,-0.5797 h 0.28985 z m 8.88893,-11.08702 q -0.84541,0 -1.57006,0.33827 -0.72464,0.33827 -1.25604,0.94201 -0.50725,0.5797 -0.82126,1.40099 -0.28985,0.7971 -0.28985,1.73911 0,0.94205 0.28985,1.76331 0.314,0.7971 0.82126,1.40099 0.5314,0.5797 1.25604,0.91786 0.72465,0.33827 1.57006,0.33827 0.84541,0 1.57006,-0.33827 0.72464,-0.33827 1.23188,-0.91786 0.53141,-0.60389 0.82126,-1.40099 0.31401,-0.82126 0.31401,-1.76331 0,-0.94201 -0.31401,-1.73911 -0.28985,-0.82129 -0.82126,-1.40099 -0.50724,-0.60386 -1.23188,-0.94201 -0.72465,-0.33827 -1.57006,-0.33827 z m 0,-2.0773 q 1.40097,0 2.60871,0.48309 1.23189,0.4831 2.12561,1.35266 0.91788,0.86959 1.42513,2.05315 0.5314,1.1836 0.5314,2.60871 0,1.42515 -0.5314,2.6087 -0.50725,1.1836 -1.42513,2.05316 -0.89372,0.84544 -2.12561,1.30435 -1.20774,0.45895 -2.60871,0.45895 -1.40097,0 -2.63286,-0.45895 -1.20774,-0.45891 -2.12562,-1.30435 -0.89372,-0.86956 -1.42512,-2.05316 -0.50725,-1.18355 -0.50725,-2.6087 0,-1.42511 0.50725,-2.60871 0.5314,-1.18356 1.42512,-2.05315 0.91788,-0.86956 2.12562,-1.35266 1.23189,-0.48309 2.63286,-0.48309 z m 20.62811,13.16432 h -0.28985 q 0,-0.2657 -0.24155,-0.28989 -0.2174,-0.0227 -0.48309,-0.0227 H 301.8751 q -0.2657,0 -0.43479,0.0227 -0.16909,0.0484 -0.16909,0.2657 h -0.28985 v -0.86956 q 0,-1.2802 0.62802,-2.1981 0.65217,-0.91785 1.61836,-1.61835 0.96619,-0.7005 2.07731,-1.2319 1.11111,-0.5314 2.0773,-1.03865 0.96619,-0.5314 1.59421,-1.08696 0.65218,-0.55555 0.65218,-1.30435 0,-0.50725 -0.24155,-0.82125 -0.2174,-0.33827 -0.57971,-0.5314 -0.36231,-0.21733 -0.79711,-0.28989 -0.43478,-0.0726 -0.84542,-0.0726 -0.41063,0 -1.01449,0.14513 -0.60387,0.14476 -1.15943,0.4348 -0.55556,0.28989 -0.96619,0.70046 -0.38647,0.38649 -0.38647,0.89374 0,0.12057 0.0483,0.31408 0.0725,0.19314 0.1691,0.2657 l -0.24155,0.16895 -2.48793,-2.65705 0.24155,-0.16894 q 0.0966,0.0484 0.19324,0.0967 0.0966,0.0484 0.2174,0.0484 0.14491,0 0.5314,-0.36245 0.38648,-0.36246 1.06281,-0.79711 0.67633,-0.43479 1.69083,-0.7971 1.0145,-0.36246 2.41547,-0.36246 0.91788,0 1.78745,0.21733 0.89372,0.21732 1.57005,0.70049 0.70049,0.45895 1.11112,1.20775 0.43478,0.72461 0.43478,1.78742 0,1.13529 -0.43478,1.88409 -0.43479,0.7488 -1.15943,1.2802 -0.70048,0.50725 -1.59421,0.86956 -0.89372,0.36246 -1.83575,0.72465 -0.91788,0.33827 -1.78745,0.72465 -0.84542,0.38645 -1.49759,0.99031 v 0.24151 h 7.97105 q 0.2657,0 0.48309,-0.0968 0.24155,-0.0967 0.24155,-0.5797 h 0.28985 z m 10.41068,-10.55562 -5.45896,5.99036 h 5.45896 z m -7.05317,8.06767 q -0.41063,0 -0.62802,0.12094 -0.19325,0.0968 -0.19325,0.41061 h -0.28985 v -2.70531 l 6.20775,-6.73916 q 0.26571,-0.28989 0.4831,-0.5314 0.21739,-0.2657 0.21739,-0.41065 0,-0.19313 -0.14494,-0.24151 -0.14495,-0.0726 -0.2657,-0.14514 v -0.28988 h 4.68601 v 0.28988 q -0.2174,0 -0.36231,0.12057 -0.1449,0.12095 -0.1449,0.33827 v 7.70532 h 0.77294 q 0.31401,0 0.4831,-0.0967 0.19325,-0.0968 0.19325,-0.4831 h 0.28985 v 3.2609 h -0.28985 q 0,-0.41065 -0.19325,-0.50725 -0.1691,-0.0968 -0.4831,-0.0968 h -0.77294 v 1.20775 q 0,0.41065 0.1449,0.55555 0.1691,0.12095 0.33816,0.12095 v 0.28989 h -3.64736 V 366.077 q 0.2657,0 0.45894,-0.12095 0.19324,-0.14475 0.19324,-0.55555 v -1.20775 z m 1.59694,-89.28632 c 5.43609,0.77488 10.81364,1.95319 16.07376,3.5116 l 4.86796,-6.90112 c 1.37816,-2.06721 2.52755,-3.67555 3.44632,-4.824 1.03363,-1.26327 1.95145,-2.18248 2.75535,-2.75675 0.91877,-0.68915 1.77974,-1.09122 2.58365,-1.206 0.8039,-0.2298 1.66632,-0.34319 2.58512,-0.34319 v -3.10148 h -30.14706 v 3.10148 c 0.91876,0 1.89486,0.11377 2.92845,0.34319 1.14845,0.22979 1.72245,0.74687 1.72245,1.55077 0,0.68909 -0.28687,1.43501 -0.86125,2.23888 -0.57418,0.80395 -1.32011,1.89509 -2.23887,3.27322 z m -49.86009,7.51975 c 5.5413,-3.55491 11.79408,-5.74707 18.25734,-7.03876 -1.23791,-1.86516 -2.55073,-3.86223 -3.61372,-5.42128 -1.60781,-2.6414 -2.412,-4.30662 -2.412,-4.99567 0,-1.14845 0.45893,-1.83749 1.37765,-2.06721 0.91877,-0.3447 1.89487,-0.51648 2.92846,-0.51648 v -3.10148 H 248.86 v 3.10148 c 1.14845,0 2.52662,0.40071 4.13443,1.20462 1.72267,0.8039 2.98574,1.77996 3.78966,2.92841 z m 57.09463,8.52284 c -4.4386,-2.40919 -9.57358,-3.24685 -14.50031,-4.13159 -0.41578,-0.0692 -0.84427,-0.11301 -1.26557,-0.1716 l -7.90851,10.88232 c -1.49296,-2.41171 -3.44512,-5.33998 -5.85687,-8.78528 -0.45789,-0.65413 -0.88706,-1.25114 -1.34079,-1.89698 -2.51271,0.42927 -4.99332,1.04424 -7.37076,1.91399 -3.60522,1.26062 -7.18493,3.48703 -9.69336,6.4783 l 12.7197,17.79481 v 8.03622 c 6.26892,1.7715 12.98003,1.93939 19.28175,1.28825 0.11868,-0.0151 0.23887,-0.0389 0.35755,-0.0556 v -9.2691 z M 302.8531,275.24027 c -4.81345,0 -9.4696,0.40453 -13.98104,1.1819 -0.52747,0.0911 -1.04731,0.20069 -1.57062,0.30236 -0.66183,0.1285 -1.33115,0.2366 -1.98637,0.38166 -5.60473,1.24354 -10.58167,3.10873 -14.9302,5.59578 -0.48236,0.28233 -0.95032,0.57445 -1.4103,0.87258 -0.41059,0.26608 -0.80757,0.54262 -1.20032,0.82152 -3.04566,2.16275 -5.56374,4.70226 -7.53676,7.63181 -2.51247,3.65745 -3.76838,7.90038 -3.76838,12.7282 0,4.90103 1.25591,9.18006 3.76838,12.83747 2.51248,3.65748 5.89551,6.73103 10.14738,9.21808 4.34853,2.4139 9.32547,4.20551 14.9302,5.37588 1.07365,0.22413 2.16344,0.40755 3.25478,0.58882 0.48665,0.0809 0.97123,0.16592 1.46139,0.23848 4.14917,0.61183 8.42011,0.92792 12.82186,0.92792 2.32071,0 4.59349,-0.0994 6.8174,-0.30086 0.49066,-0.0446 0.96979,-0.113 1.45572,-0.16743 1.71387,-0.19124 3.40706,-0.42455 5.06234,-0.7378 4.25189,-0.80466 8.02103,-1.75597 11.30653,-2.85324 3.38223,-1.09727 6.13584,-2.08468 8.26179,-2.96251 2.22259,-0.87776 3.62419,-1.31663 4.20396,-1.31663 0.28989,0 0.53175,0.0378 0.72499,0.10922 h 0.86979 l 1.15914,-0.87824 -9.56708,-11.63007 -2.02893,0.87825 c 0.38657,0.36586 0.58031,0.80463 0.58031,1.31668 0,0.95089 -0.96597,1.97446 -2.89863,3.07173 -1.83602,1.02407 -4.15552,1.97545 -6.95789,2.85321 -2.80236,0.80466 -5.89545,1.49907 -9.27764,2.08425 -0.48495,0.0733 -0.9597,0.13002 -1.43868,0.19314 -0.4874,0.0639 -0.97447,0.1285 -1.45572,0.18142 -2.34414,0.25852 -4.61972,0.39299 -6.8174,0.39299 -4.05864,0 -7.972,-0.43888 -11.74072,-1.31667 -0.37153,-0.0888 -0.71857,-0.19956 -1.08114,-0.2967 -0.4868,-0.13039 -0.98067,-0.2536 -1.45145,-0.3987 -2.64457,-0.81528 -5.04094,-1.86039 -7.17921,-3.14407 -2.70574,-1.68246 -4.87952,-3.731 -6.52231,-6.14495 -1.64277,-2.48704 -2.46449,-5.30362 -2.46449,-8.44906 0,-3.1454 0.82172,-5.92444 2.46449,-8.33835 0.19688,-0.29821 0.42634,-0.57188 0.63847,-0.85841 0.30055,-0.40588 0.60524,-0.80908 0.93642,-1.1918 1.3857,-1.60123 3.0253,-3.0088 4.94742,-4.20393 2.80237,-1.68246 6.03972,-2.963 9.7118,-3.84076 0.76879,-0.17914 1.54741,-0.32692 2.32826,-0.46964 0.52668,-0.096 1.05838,-0.17726 1.5905,-0.25663 2.54661,-0.38052 5.14968,-0.59021 7.82196,-0.59021 1.87699,0 3.87421,0.13644 5.98458,0.40154 0.53212,0.0665 1.07191,0.14173 1.61885,0.22563 0.0756,0.0113 0.14816,0.0189 0.22412,0.0302 2.89902,0.43888 5.60459,0.98752 8.11703,1.64583 2.60912,0.65832 4.78432,1.42636 6.52373,2.30415 0.30199,0.13947 0.5492,0.27893 0.80447,0.41855 0.47785,0.26154 0.90403,0.52324 1.21875,0.78463 0.48609,0.40365 0.77843,0.80655 0.87541,1.21024 0.0968,0.29254 0.14476,0.54955 0.14476,0.76899 0.0968,0.21921 0.14476,0.43887 0.14476,0.65831 l 1.45001,0.76763 11.30657,-13.2759 -2.17504,-1.31667 c -0.19313,0.21921 -0.48321,0.51107 -0.86978,0.87681 -0.28989,0.36586 -0.67597,0.54909 -1.15915,0.54909 -0.31143,0 -1.18261,-0.24302 -2.37225,-0.62283 -0.28687,-0.0915 -0.47932,-0.14173 -0.81725,-0.25549 -0.18595,-0.0627 -0.45816,-0.12964 -0.65832,-0.19314 -1.67346,-0.52962 -3.76868,-1.08336 -6.44428,-1.67138 -2.77304,-0.60941 -6.05209,-1.1842 -9.73592,-1.73095 -0.29555,-0.0438 -0.54398,-0.0911 -0.84563,-0.13493 -0.25058,-0.0378 -0.52017,-0.0631 -0.77469,-0.0979 -3.76856,-0.51348 -7.94419,-0.78036 -12.56077,-0.78036 z m 15.16007,-0.33335 c 5.43609,0.77488 10.81364,1.95318 16.07376,3.5116 l 4.86796,-6.90112 c 1.37816,-2.06721 2.52755,-3.67555 3.44632,-4.824 1.03363,-1.26327 1.95145,-2.18249 2.75535,-2.75675 0.91877,-0.68916 1.77974,-1.09123 2.58365,-1.20601 0.8039,-0.22979 1.66632,-0.34318 2.58512,-0.34318 v -3.10148 h -30.14706 v 3.10148 c 0.91876,0 1.89486,0.11376 2.92845,0.34318 1.14845,0.2298 1.72245,0.74687 1.72245,1.55078 0,0.68908 -0.28687,1.43501 -0.86125,2.23888 -0.57418,0.80394 -1.32011,1.89509 -2.23887,3.27322 z m -49.8601,7.51975 c 5.54131,-3.55491 11.79409,-5.74708 18.25735,-7.03877 -1.23791,-1.86516 -2.55073,-3.86222 -3.61372,-5.42128 -1.60781,-2.6414 -2.412,-4.30662 -2.412,-4.99566 0,-1.14845 0.45893,-1.8375 1.37765,-2.06722 0.91877,-0.34469 1.89487,-0.51647 2.92846,-0.51647 v -3.10148 H 248.86 v 3.10148 c 1.14845,0 2.52662,0.40071 4.13443,1.20461 1.72267,0.80391 2.98574,1.77997 3.78966,2.92842 z m 57.09464,8.52283 c -4.4386,-2.40918 -9.57358,-3.24684 -14.50031,-4.13159 -0.41578,-0.0692 -0.84427,-0.11301 -1.26557,-0.17159 l -7.90851,10.88232 c -1.49296,-2.41172 -3.44512,-5.33998 -5.85687,-8.78529 -0.45789,-0.65412 -0.88706,-1.25113 -1.34079,-1.89698 -2.51271,0.42928 -4.99332,1.04425 -7.37076,1.91399 -3.60522,1.26062 -7.18493,3.48703 -9.69336,6.4783 l 12.7197,17.79481 v 8.03622 c 6.26892,1.7715 12.98003,1.93939 19.28175,1.28825 0.11868,-0.0151 0.23887,-0.0389 0.35755,-0.0556 v -9.2691 z m -15.57721,44.10535 c -4.82483,0.45449 -9.68814,0.48669 -14.53009,0.0151 -1.69342,-0.15723 -3.40056,-0.36888 -5.10917,-0.61296 v 9.23935 c 0,1.03359 -0.34393,1.83776 -1.0329,2.41198 -0.68905,0.45941 -1.5515,0.68811 -2.58509,0.68811 v 3.10155 h 27.21861 v -3.10155 c -2.6414,0 -3.96136,-1.03291 -3.96136,-3.10009 z m -6.8174,-59.8145 c -4.81345,0 -9.4696,0.40452 -13.98104,1.18189 -0.52747,0.0911 -1.04731,0.2007 -1.57062,0.30237 -0.66183,0.1285 -1.33115,0.23659 -1.98637,0.38165 -5.60473,1.24354 -10.58167,3.10874 -14.9302,5.59578 -0.48236,0.28233 -0.95032,0.57445 -1.4103,0.87258 -0.41059,0.26608 -0.80757,0.54259 -1.20032,0.82152 -3.04566,2.16276 -5.56374,4.70226 -7.53676,7.63181 -2.51247,3.65745 -3.76838,7.90039 -3.76838,12.7282 0,4.90103 1.25591,9.18006 3.76838,12.83747 2.51248,3.65749 5.89551,6.73104 10.14738,9.21808 4.34853,2.41391 9.32547,4.20552 14.9302,5.37589 1.07365,0.22412 2.16344,0.40754 3.25478,0.58881 0.48665,0.0809 0.97123,0.16592 1.46139,0.23849 4.14917,0.61183 8.42011,0.92791 12.82186,0.92791 2.32071,0 4.59349,-0.0994 6.8174,-0.30085 0.49066,-0.0446 0.96979,-0.11301 1.45572,-0.16743 1.71387,-0.19125 3.40706,-0.42456 5.06234,-0.7378 4.25189,-0.80467 8.02103,-1.75597 11.30653,-2.85325 3.38223,-1.09727 6.13584,-2.08467 8.26179,-2.9625 2.22259,-0.87776 3.62419,-1.31664 4.20396,-1.31664 0.28989,0 0.53175,0.0378 0.72499,0.10923 h 0.86979 l 1.15914,-0.87825 -9.56708,-11.63006 -2.02893,0.87825 c 0.38657,0.36586 0.58031,0.80462 0.58031,1.31667 0,0.95089 -0.96597,1.97447 -2.89863,3.07174 -1.83602,1.02406 -4.15552,1.97544 -6.95789,2.8532 -2.80236,0.80466 -5.89545,1.49908 -9.27764,2.08426 -0.48495,0.0733 -0.9597,0.13002 -1.43868,0.19313 -0.4874,0.0639 -0.97447,0.12851 -1.45572,0.18142 -2.34414,0.25852 -4.61972,0.393 -6.8174,0.393 -4.05864,0 -7.972,-0.43888 -11.74072,-1.31668 -0.37153,-0.0888 -0.71857,-0.19956 -1.08114,-0.29669 -0.4868,-0.13039 -0.98067,-0.25361 -1.45145,-0.3987 -2.64457,-0.81528 -5.04094,-1.8604 -7.17921,-3.14408 -2.70574,-1.68245 -4.87952,-3.731 -6.52231,-6.14494 -1.64277,-2.48705 -2.46449,-5.30363 -2.46449,-8.44906 0,-3.1454 0.82172,-5.92445 2.46449,-8.33836 0.19688,-0.2982 0.42634,-0.57188 0.63847,-0.8584 0.30055,-0.40589 0.60524,-0.80909 0.93642,-1.1918 1.3857,-1.60124 3.0253,-3.00881 4.94742,-4.20393 2.80237,-1.68246 6.03972,-2.963 9.7118,-3.84076 0.76879,-0.17915 1.54741,-0.32693 2.32826,-0.46964 0.52668,-0.096 1.05838,-0.17726 1.5905,-0.25663 2.54661,-0.38053 5.14968,-0.59021 7.82196,-0.59021 1.87699,0 3.87421,0.13644 5.98458,0.40153 0.53212,0.0665 1.07191,0.14173 1.61885,0.22564 0.0756,0.0113 0.14816,0.0189 0.22412,0.0302 2.89902,0.43887 5.60459,0.98751 8.11703,1.64583 2.60912,0.65832 4.78432,1.42636 6.52373,2.30415 0.30199,0.13947 0.5492,0.27893 0.80447,0.41855 0.47785,0.26154 0.90403,0.52323 1.21875,0.78463 0.48609,0.40365 0.77843,0.80655 0.87541,1.21024 0.0968,0.29253 0.14476,0.54954 0.14476,0.76898 0.0968,0.21921 0.14476,0.43888 0.14476,0.65832 l 1.45001,0.76762 11.30657,-13.27589 -2.17504,-1.31668 c -0.19313,0.21922 -0.48321,0.51107 -0.86978,0.87682 -0.28989,0.36585 -0.67597,0.54909 -1.15915,0.54909 -0.31143,0 -1.18261,-0.24303 -2.37225,-0.62283 -0.28687,-0.0915 -0.47932,-0.14173 -0.81725,-0.2555 -0.18595,-0.0627 -0.45816,-0.12964 -0.65832,-0.19313 -1.67346,-0.52963 -3.76868,-1.08337 -6.44428,-1.67139 -2.77304,-0.60941 -6.05209,-1.1842 -9.73592,-1.73094 -0.29555,-0.0439 -0.54398,-0.0911 -0.84563,-0.13493 -0.25058,-0.0378 -0.52017,-0.0631 -0.77469,-0.0979 -3.76856,-0.51349 -7.94419,-0.78036 -12.56077,-0.78036 z m -18.16267,-15.95456 v 3.10008 c -0.51681,0 -1.0187,0.0442 -1.50678,0.1304 0.48842,-0.0858 0.9914,-0.12889 1.50822,-0.12889 v -3.10151 z m -35.83081,3.10008 v 10e-4 c 1.14845,0 2.52662,0.40211 4.13443,1.20601 1.29201,0.60299 2.3264,1.30314 3.10154,2.09987 -0.77523,-0.79703 -1.8091,-1.49813 -3.10154,-2.10127 -1.60781,-0.8039 -2.98597,-1.20597 -4.13443,-1.20597 z m 71.31827,0 v 10e-4 c 0.91877,0 1.89483,0.1149 2.92845,0.34469 0.57423,0.1149 1.00547,0.30199 1.29256,0.56043 -0.28724,-0.25889 -0.71773,-0.44685 -1.29256,-0.56186 -1.03362,-0.2298 -2.00968,-0.34469 -2.92845,-0.34469 z m 30.14702,0 c -0.91872,0 -1.77974,0.1149 -2.58364,0.3447 -0.80395,0.11489 -1.66632,0.51685 -2.58509,1.206 -0.40195,0.28725 -0.83198,0.66135 -1.29112,1.12086 0.45914,-0.45914 0.88917,-0.83233 1.29112,-1.11942 0.91877,-0.68916 1.78114,-1.09126 2.58509,-1.20601 0.8039,-0.22979 1.66492,-0.34469 2.58364,-0.34469 z m -93.54119,4.13583 7.8872,11.03418 0.81724,1.14357 1.73805,2.43042 -0.82149,-1.15067 z m 10.44249,14.60817 6.70533,9.38264 0.85697,1.19603 z m 36.20255,-11.06819 c -6.12189,0 -12.03432,0.53869 -17.74087,1.60751 0.52074,0.805 1.06563,1.59443 1.59756,2.39213 5.10977,-0.92194 10.38728,-1.41029 15.85527,-1.41029 5.17323,0 9.8459,0.30425 14.04065,0.89669 0.59236,-0.82537 1.19312,-1.64477 1.78344,-2.47158 -4.62357,-0.67393 -9.79963,-1.01446 -15.53605,-1.01446 z m 42.63262,4.77713 c -0.22715,0.25814 -0.56825,0.60121 -1.02297,1.03147 -0.34091,0.4303 -0.79502,0.64558 -1.36346,0.64558 -0.45475,0 -1.70646,-0.34431 -3.75277,-1.03287 -0.45797,-0.1542 -1.08979,-0.31823 -1.62172,-0.47675 -0.60102,0.8473 -1.19958,1.69652 -1.80049,2.54397 0.12624,0.0385 0.28498,0.0786 0.39727,0.11641 1.89286,0.63681 3.04977,0.95482 3.47043,0.95482 0.52581,0 0.94727,-0.19918 1.26274,-0.59732 0.42066,-0.39802 0.73603,-0.71599 0.94636,-0.95486 l 2.36515,1.43301 -10.91637,12.81902 1.29256,0.68527 13.30141,-15.61977 z m -57.33158,1.38618 c 0.35187,0.51651 0.70333,1.03347 1.05846,1.54794 -0.35566,-0.51397 -0.70587,-1.03196 -1.05846,-1.54794 z m -24.48878,3.22783 c -4.53473,2.82028 -8.19171,6.26672 -10.9476,10.35882 -2.95585,4.30288 -4.4338,9.29435 -4.4338,14.97415 0,5.76589 1.47795,10.80045 4.4338,15.10333 2.95586,4.30288 6.93431,7.91807 11.93652,10.84403 5.11591,2.8399 10.97114,4.94812 17.56494,6.32508 1.89495,0.39568 3.81993,0.7183 5.76182,1.00025 0.003,-0.8739 0.002,-1.74803 0.008,-2.62193 -1.51767,-0.23471 -3.02113,-0.504 -4.50758,-0.81442 -6.09928,-1.27366 -11.51466,-3.22431 -16.24689,-5.8512 -4.62703,-2.70652 -8.30848,-6.04943 -11.04265,-10.02962 -2.73416,-3.98018 -4.10039,-8.63765 -4.10039,-13.9711 0,-5.25384 1.36623,-9.87035 4.10039,-13.85053 2.36597,-3.51303 5.44464,-6.51685 9.22798,-9.01655 -0.58392,-0.81691 -1.1683,-1.63344 -1.75223,-2.45031 z m 24.32139,55.98373 c 0.0113,-3.21158 0.0265,-6.42293 0.0227,-9.63523 -10e-4,-2.6e-4 -0.002,-10e-4 -0.003,-10e-4 -9.5e-4,3.21237 -0.0113,6.42444 -0.0189,9.63659 z m 3.72721,-54.07541 c 0.16668,0.2366 0.32958,0.47566 0.4966,0.71225 10e-4,-2.2e-4 0.003,2.3e-4 0.004,0 -0.16744,-0.23735 -0.33374,-0.47486 -0.50083,-0.71225 z m 35.13703,6.49818 -0.87258,1.23579 -16.88395,23.93829 z m 11.64279,26.86674 -1.72244,0.74487 9.17265,11.15047 -1.26131,0.9563 h -0.94635 c -0.21014,-0.0797 -0.47339,-0.12057 -0.78886,-0.12057 -0.63096,0 -2.15562,0.47777 -4.57429,1.43301 -2.31353,0.95524 -5.31043,2.03093 -8.99104,3.22496 -3.57544,1.19406 -7.67694,2.22878 -12.30399,3.10439 -2.13052,0.4032 -4.31108,0.70193 -6.5308,0.91937 v 2.65035 c 2.7253,-0.23622 5.39278,-0.59293 7.99502,-1.08536 5.00225,-0.94666 9.43609,-2.06608 13.30145,-3.35694 3.97901,-1.29082 7.2192,-2.45193 9.7203,-3.48461 2.61479,-1.03268 4.26248,-1.54935 4.94457,-1.54935 0.34091,0 0.62536,0.0431 0.8527,0.12889 h 1.02296 l 1.3649,-1.03287 z m 43.11988,2.95634 c -0.25361,0 -0.45876,0.0631 -0.45876,0.58931 0,0.37228 0.1028,0.87613 0.25285,1.13915 h -0.15609 c -0.0488,0 -0.0612,0.0578 -0.0881,0.10771 l -0.0427,0.079 c -0.0302,0.0548 0.0431,0.11867 0.0968,0.11867 h 0.0816 c -0.0189,0.0227 -0.034,0.0544 -0.034,0.0881 0,0.0401 0.0189,0.076 0.0454,0.10053 h -0.11339 c -0.0465,0 -0.0843,0.0378 -0.0843,0.0839 v 1.03563 a 4.8802891,4.8802891 0 0 0 -2.5736,1.06469 l -0.73111,-0.73134 c -0.034,-0.034 -0.0862,-0.034 -0.11905,0 l -0.0801,0.0801 c 0.002,-0.0378 -0.0113,-0.0745 -0.0389,-0.10281 -0.0227,-0.0227 -0.0544,-0.0378 -0.0858,-0.0389 l 0.0578,-0.0578 c 0.0382,-0.0382 0.0446,-0.13455 -0.0151,-0.15232 l -0.0862,-0.0265 c -0.054,-0.0151 -0.10394,-0.0484 -0.13871,-0.0151 l -0.11036,0.11036 c -0.0801,-0.29178 -0.36359,-0.72106 -0.62657,-0.98427 -0.37191,-0.3719 -0.56194,-0.27137 -0.74117,-0.0922 -0.17914,0.17915 -0.27968,0.36926 0.0922,0.74117 0.26305,0.26305 0.69206,0.54682 0.98407,0.62676 l -0.10583,0.10582 c -0.034,0.034 3.4e-4,0.0835 0.0151,0.13871 l 0.0227,0.09 c 0.0151,0.0601 0.11452,0.0537 0.15269,0.0151 l 0.0571,-0.0571 c 0.002,0.0302 0.0151,0.0616 0.0389,0.0854 0.0265,0.0265 0.0661,0.0412 0.10281,0.0389 l -0.0801,0.0801 c -0.034,0.034 -0.034,0.0862 0,0.11905 l 0.73111,0.73134 a 4.8802891,4.8802891 0 0 0 -1.05607,2.57337 h -1.04399 c -0.0469,0 -0.0843,0.0378 -0.0843,0.0843 v 0.11339 c -0.0227,-0.0265 -0.0601,-0.0454 -0.10016,-0.0454 -0.034,0 -0.0646,0.0113 -0.0881,0.034 v -0.0816 c 0,-0.0537 -0.0643,-0.12661 -0.11905,-0.0971 l -0.079,0.0427 c -0.0499,0.0265 -0.10771,0.0393 -0.10771,0.0881 v 0.15609 c -0.26306,-0.15005 -0.76676,-0.25285 -1.13896,-0.25285 -0.52604,0 -0.58935,0.20523 -0.58935,0.4588 0,0.25323 0.0635,0.45895 0.58935,0.45898 0.37228,-3e-5 0.87594,-0.1028 1.13896,-0.25285 v 0.14967 c 0,0.0488 0.059,0.0586 0.10771,0.0881 l 0.079,0.048 c 0.0529,0.0302 0.11867,-0.0431 0.11867,-0.0968 v -0.0805 c 0.0227,0.0189 0.0544,0.034 0.0884,0.034 0.0401,0 0.076,-0.0189 0.10016,-0.0454 v 0.11338 c 0,0.0469 0.0378,0.0843 0.0843,0.0843 h 1.04399 a 4.8802891,4.8802891 0 0 0 1.0563,2.57336 l -0.73134,0.73134 c -0.034,0.034 -0.034,0.0862 0,0.11906 l 0.0801,0.0801 c -0.0378,-0.002 -0.0745,0.0113 -0.10281,0.0389 -0.0227,0.0227 -0.0378,0.0544 -0.0389,0.0854 l -0.0578,-0.0578 c -0.0382,-0.0382 -0.13493,-0.0442 -0.1527,0.0151 l -0.0265,0.0862 c -0.0151,0.054 -0.0488,0.10394 -0.0151,0.13834 l 0.11036,0.11036 c -0.29216,0.0801 -0.72087,0.36321 -0.98407,0.62653 -0.37191,0.37191 -0.27137,0.56194 -0.0922,0.74117 0.17915,0.17915 0.36926,0.27968 0.74117,-0.0922 0.26306,-0.26305 0.54663,-0.69225 0.62657,-0.98422 l 0.10621,0.10582 c 0.034,0.034 0.0831,-2.2e-4 0.1387,-0.0151 l 0.09,-0.0227 c 0.0601,-0.0151 0.0533,-0.11452 0.0151,-0.15269 l -0.0571,-0.0571 c 0.0302,-10e-4 0.062,-0.0151 0.0858,-0.0389 0.0302,-0.0302 0.0412,-0.0661 0.0389,-0.10281 l 0.0801,0.0801 c 0.034,0.034 0.0862,0.034 0.11906,0 l 0.73115,-0.73134 a 4.8802891,4.8802891 0 0 0 2.57355,1.06466 v 1.03562 c 0,0.0469 0.0378,0.0843 0.0843,0.0843 h 0.11338 c -0.0264,0.0227 -0.0453,0.0601 -0.0453,0.10016 0,0.034 0.0113,0.0646 0.034,0.0881 h -0.0816 c -0.0537,0 -0.12662,0.0639 -0.0968,0.11868 l 0.0427,0.079 c 0.0265,0.0499 0.0393,0.10771 0.0881,0.10771 h 0.1561 c -0.15005,0.26306 -0.25285,0.76676 -0.25285,1.13893 0,0.52607 0.20523,0.58934 0.45876,0.58934 0.2536,0 0.45898,-0.0635 0.45898,-0.58934 0,-0.37229 -0.1028,-0.87591 -0.25285,-1.13893 h 0.15005 c 0.0488,0 0.0586,-0.0593 0.0881,-0.10771 l 0.048,-0.079 c 0.0302,-0.0529 -0.0431,-0.11868 -0.0967,-0.11868 h -0.0809 c 0.0189,-0.0227 0.034,-0.0544 0.034,-0.0881 0,-0.0401 -0.0189,-0.076 -0.0453,-0.10016 h 0.11338 c 0.0465,0 0.0843,-0.0378 0.0843,-0.0843 v -1.03562 a 4.8802891,4.8802891 0 0 0 2.57336,-1.06466 l 0.73134,0.73134 c 0.034,0.034 0.0862,0.034 0.11906,0 l 0.0801,-0.0801 c -0.002,0.0378 0.0113,0.0745 0.0385,0.10281 0.0227,0.0227 0.0544,0.0378 0.0858,0.0389 l -0.0571,0.0571 c -0.0378,0.0382 -0.0446,0.13795 0.0151,0.15269 l 0.0899,0.0227 c 0.0552,0.0151 0.10394,0.048 0.13871,0.0151 l 0.1062,-0.10582 c 0.0801,0.29216 0.36321,0.72106 0.62653,0.98422 0.37191,0.37191 0.56217,0.27138 0.74136,0.0922 0.17915,-0.17915 0.27968,-0.36926 -0.0922,-0.74117 -0.26306,-0.26306 -0.69226,-0.5466 -0.98423,-0.62653 l 0.11036,-0.11036 c 0.034,-0.034 0.002,-0.0843 -0.0151,-0.13834 l -0.0265,-0.0862 c -0.0189,-0.0597 -0.11452,-0.0533 -0.15269,-0.0151 l -0.0578,0.0578 c -0.002,-0.0302 -0.0151,-0.0616 -0.0389,-0.0858 -0.0265,-0.0265 -0.0658,-0.0412 -0.1028,-0.0389 l 0.0801,-0.0801 c 0.034,-0.034 0.034,-0.0862 0,-0.11906 l -0.73134,-0.73111 a 4.8802891,4.8802891 0 0 0 1.05608,-2.57359 h 1.04421 c 0.0465,0 0.0843,-0.0378 0.0843,-0.0843 v -0.11339 c 0.0227,0.0265 0.0601,0.0454 0.10016,0.0454 0.034,0 0.0646,-0.0113 0.0881,-0.034 v 0.0805 c 0,0.0537 0.0661,0.12926 0.11868,0.0971 l 0.079,-0.048 c 0.0488,-0.0302 0.10772,-0.0393 0.10772,-0.0881 v -0.14967 c 0.26305,0.15005 0.76694,0.25285 1.13915,0.25285 0.52603,0 0.5893,-0.2056 0.5893,-0.45894 0,-0.25361 -0.0635,-0.4588 -0.5893,-0.4588 -0.37229,0 -0.87617,0.10318 -1.13915,0.25285 v -0.15609 c 0,-0.0488 -0.0578,-0.0612 -0.10772,-0.0881 l -0.079,-0.0427 c -0.0548,-0.0302 -0.11868,0.0431 -0.11868,0.0971 v 0.0816 c -0.0227,-0.0189 -0.0541,-0.034 -0.0881,-0.034 -0.0401,0 -0.076,0.0189 -0.10016,0.0453 v -0.11338 c 0,-0.0469 -0.0378,-0.0843 -0.0843,-0.0843 H 387.026 a 4.8802891,4.8802891 0 0 0 -1.05177,-2.57933 l 0.72559,-0.72537 c 0.034,-0.034 0.034,-0.0862 0,-0.11906 l -0.0801,-0.0801 c 0.0378,0.002 0.0745,-0.0113 0.1028,-0.0389 0.0227,-0.0227 0.0378,-0.0544 0.0389,-0.0854 l 0.0571,0.0567 c 0.0382,0.0382 0.13795,0.0446 0.15232,-0.0151 l 0.0227,-0.09 c 0.0151,-0.0552 0.0484,-0.10393 0.0151,-0.13871 l -0.10582,-0.10582 c 0.29215,-0.0801 0.72105,-0.36359 0.98422,-0.6268 0.37191,-0.3719 0.27137,-0.56194 0.0922,-0.74116 -0.17915,-0.17915 -0.36926,-0.27969 -0.74112,0.0922 -0.26306,0.26305 -0.54664,0.69225 -0.62657,0.98422 l -0.11037,-0.11036 c -0.034,-0.034 -0.0843,-0.002 -0.13871,0.0151 l -0.0862,0.0265 c -0.0597,0.0189 -0.0533,0.11452 -0.0151,0.15269 l 0.0575,0.0578 c -0.0302,0.001 -0.062,0.0151 -0.0858,0.0389 -0.0265,0.0265 -0.0412,0.0658 -0.0385,0.10281 l -0.0801,-0.0801 c -0.034,-0.034 -0.0862,-0.034 -0.11906,0 l -0.72559,0.7256 a 4.8802891,4.8802891 0 0 0 -2.57911,-1.06833 v -1.02602 c 0,-0.0469 -0.0378,-0.0843 -0.0843,-0.0843 h -0.11339 c 0.0265,-0.0227 0.0453,-0.0601 0.0453,-0.10016 0,-0.034 -0.0113,-0.0646 -0.034,-0.0881 h 0.0809 c 0.0537,0 0.12926,-0.0658 0.0968,-0.11868 l -0.048,-0.079 c -0.0302,-0.0487 -0.0393,-0.10771 -0.0881,-0.10771 h -0.15004 c 0.15004,-0.26306 0.25285,-0.76676 0.25285,-1.13893 0,-0.52603 -0.20561,-0.58934 -0.45899,-0.58934 z m 1.9e-4,3.70126 c 0.16025,0 0.32088,0.004 0.40187,0.0113 0.76872,0.0779 1.42538,0.30652 2.04934,0.71289 0.27137,0.17688 0.46624,0.33449 0.70658,0.57256 0.24265,0.24038 0.41224,0.4475 0.59426,0.72541 0.41189,0.62887 0.64131,1.28507 0.71985,2.05912 0.0151,0.16176 0.0151,0.64188 0,0.80375 -0.0779,0.76872 -0.30614,1.42519 -0.71271,2.04915 -0.17688,0.27137 -0.33486,0.46621 -0.57275,0.70658 -0.47645,0.48118 -1.0317,0.83675 -1.66605,1.06693 -0.32806,0.11905 -0.68561,0.20031 -1.05812,0.24037 -0.13871,0.0151 -0.58152,0.0265 -0.68817,0.0189 -0.18407,-0.0151 -0.31824,-0.0265 -0.43197,-0.0442 -0.83512,-0.12246 -1.61522,-0.47856 -2.26254,-1.03234 -0.13833,-0.11868 -0.37889,-0.35868 -0.49477,-0.49455 -0.48099,-0.56364 -0.82636,-1.26368 -0.97467,-1.97567 -0.0703,-0.33789 -0.0949,-0.57933 -0.0949,-0.93763 0,-0.27817 0.0113,-0.41794 0.0446,-0.65786 0.12208,-0.83414 0.47834,-1.61541 1.03212,-2.26277 0.27023,-0.31597 0.60525,-0.60933 0.95682,-0.83833 0.624,-0.40646 1.28062,-0.63493 2.04934,-0.7129 0.0809,-0.008 0.24113,-0.0113 0.40169,-0.0113 z m -0.11036,0.11754 -0.0828,0.004 c -0.9442,0.0431 -1.81976,0.37719 -2.56905,0.98097 -0.16139,0.13002 -0.489,0.45782 -0.61902,0.6192 -0.60366,0.74929 -0.93815,1.62486 -0.98116,2.56906 l -0.004,0.0828 h 1.42356 1.42379 l 0.0586,0.0446 0.059,0.0446 0.46511,4.2e-4 a 0.94664239,0.94664239 0 0 0 -10e-4,0.0227 0.94664239,0.94664239 0 0 0 10e-4,0.0189 h -0.45978 l -0.0612,0.0453 -0.0612,0.0454 h -1.4236 -1.42379 l 0.004,0.0828 c 0.0431,0.9442 0.37758,1.81981 0.9812,2.5691 0.13002,0.16138 0.45759,0.48918 0.61898,0.6192 0.73168,0.58945 1.58294,0.92224 2.50012,0.9775 0.0699,0.004 0.13228,0.008 0.13946,0.0113 0.0113,8e-4 0.0113,-0.3016 0.0113,-1.48293 h -2.3e-4 l 4.2e-4,-1.48411 0.045,-0.0597 0.0446,-0.0593 v -0.336 a 0.94664239,0.94664239 0 0 0 0.0302,0.001 0.94664239,0.94664239 0 0 0 0.0113,-8e-4 v 0.33487 l 0.045,0.0593 0.045,0.0593 3.8e-4,1.48252 2.3e-4,1.48252 0.0828,-0.004 c 0.0457,-10e-4 0.15496,-0.0113 0.2434,-0.0189 v 1.9e-4 c 0.84571,-0.0809 1.63895,-0.40898 2.32558,-0.96216 0.16139,-0.13001 0.48896,-0.45758 0.61901,-0.61897 0.60367,-0.74933 0.93816,-1.62489 0.98117,-2.5691 l 0.004,-0.0828 -1.48252,-4.1e-4 -1.48252,-1.9e-4 -0.0593,-0.045 -0.0597,-0.045 -0.34431,-1.9e-4 a 0.939683,0.939683 0 0 1 -0.91794,0.91937 v -0.28838 -0.6313 h 0.63126 0.30312 a 0.94664239,0.94664239 0 0 0 0.001,-0.0189 0.94664239,0.94664239 0 0 0 -7.9e-4,-0.0227 h 0.3273 l 0.0597,-0.0446 0.0597,-0.0446 1.48252,-4.1e-4 1.48252,-3.8e-4 -0.004,-0.0828 c -0.0431,-0.9442 -0.37758,-1.82 -0.98121,-2.56929 -0.13001,-0.16138 -0.45781,-0.48899 -0.6192,-0.61901 -0.74929,-0.60367 -1.62466,-0.93815 -2.56887,-0.98116 l -0.0831,-0.004 v 1.42356 1.42378 l -0.0454,0.0612 -0.0453,0.0616 v 0.45161 a 0.94664239,0.94664239 0 0 0 -0.0113,-1.9e-4 0.94664239,0.94664239 0 0 0 -0.0302,10e-4 v -0.45346 l -0.0453,-0.0616 -0.0454,-0.0612 v -1.42379 z m -0.29783,0.37644 c -0.0302,0.10507 -0.0457,0.27099 -0.0457,0.53923 0,0.53151 0.065,1.33062 0.16516,1.93697 a 1.5459302,1.5459302 0 0 0 -0.59301,0.24907 c -0.35792,-0.50011 -0.87802,-1.11273 -1.25453,-1.48929 -0.18596,-0.18557 -0.31446,-0.2914 -0.40865,-0.34658 a 4.0315428,4.0315428 0 0 1 2.13668,-0.88951 z m 0.81668,0 a 4.0315428,4.0315428 0 0 1 2.13672,0.88993 c -0.0945,0.0548 -0.22262,0.15949 -0.40906,0.34583 -0.37606,0.37606 -0.89526,0.98732 -1.25314,1.48701 a 1.5459302,1.5459302 0 0 0 -0.59426,-0.2502 c 0.0998,-0.60597 0.16517,-1.40308 0.16517,-1.93368 0,-0.26722 -0.0151,-0.43397 -0.0454,-0.53923 z m -3.53144,1.47228 c 0.0556,0.0941 0.16101,0.22186 0.34469,0.40558 0.37758,0.37757 0.99202,0.8993 1.49276,1.25722 a 1.5459302,1.5459302 0 0 0 -0.23546,0.59343 c -0.60824,-0.10205 -1.41736,-0.16819 -1.95398,-0.16819 -0.24945,0 -0.41178,0.0151 -0.51813,0.0393 a 4.0315428,4.0315428 0 0 1 0.87008,-2.12753 z m 6.24578,0 a 4.0315428,4.0315428 0 0 1 0.87009,2.12855 c -0.10621,-0.0265 -0.26722,-0.0404 -0.51814,-0.0404 -0.53597,0 -1.34392,0.0661 -1.9519,0.16781 a 1.5459302,1.5459302 0 0 0 -0.2366,-0.59399 c 0.50053,-0.35792 1.1144,-0.87908 1.49152,-1.2562 0.18368,-0.18368 0.28951,-0.31143 0.34507,-0.40558 z m -3.10231,1.58097 a 0.939683,0.939683 0 0 1 0.91752,0.91631 h -0.28649 -0.63107 v -0.68795 z m -0.0404,0.002 v 0.2264 l -2.3e-4,0.68795 -0.69059,-8e-4 -0.22413,-2.2e-4 a 0.939683,0.939683 0 0 1 0.9151,-0.91318 z m -0.91589,0.9546 h 0.2279 0.68795 v 0.63107 0.28573 a 0.939683,0.939683 0 0 1 -0.91589,-0.91691 z m -0.57563,0.288 a 1.5459302,1.5459302 0 0 0 0.24832,0.5791 c -0.50453,0.35792 -1.13201,0.88993 -1.51506,1.27294 -0.1663,0.1663 -0.27024,0.288 -0.32958,0.3792 a 4.0315428,4.0315428 0 0 1 -0.88089,-2.09986 c 0.10658,0.0227 0.26797,0.0385 0.5136,0.0385 0.53941,0 1.3542,-0.0669 1.96339,-0.1697 z m 3.02272,0 c 0.60918,0.1028 1.42424,0.1697 1.96362,0.1697 0.24529,0 0.40694,-0.0151 0.51341,-0.0382 a 4.0315428,4.0315428 0 0 1 -0.88154,2.10024 c -0.0593,-0.0915 -0.16139,-0.21203 -0.32882,-0.37976 -0.38302,-0.38306 -1.0103,-0.91491 -1.51483,-1.27299 a 1.5459302,1.5459302 0 0 0 0.24831,-0.5791 z m -2.37181,0.97523 a 1.5459302,1.5459302 0 0 0 0.57929,0.23509 c -0.10431,0.61081 -0.17272,1.43614 -0.17272,1.98058 0,0.2298 0.0113,0.38627 0.034,0.49274 a 4.0315428,4.0315428 0 0 1 -2.09249,-0.86207 c 0.0911,-0.0597 0.21165,-0.16252 0.37644,-0.32731 0.384,-0.384 0.91759,-1.01359 1.27563,-1.51873 z m 1.72113,0 c 0.35792,0.50517 0.89162,1.13477 1.27562,1.51873 0.16479,0.16479 0.28536,0.26797 0.37645,0.32731 a 4.0315428,4.0315428 0 0 1 -2.09273,0.86207 c 0.0227,-0.10658 0.034,-0.26268 0.034,-0.49274 0,-0.54444 -0.0684,-1.36978 -0.17273,-1.98059 a 1.5459302,1.5459302 0 0 0 0.57933,-0.23508 z M 217.15108,317.6824 c -0.25346,0 -0.45878,0.0631 -0.45878,0.58931 0,0.37228 0.10277,0.87613 0.2527,1.13915 h -0.15591 c -0.0488,0 -0.0613,0.0578 -0.0882,0.10771 l -0.0426,0.079 c -0.0295,0.0548 0.0432,0.11867 0.097,0.11867 h 0.0815 c -0.0204,0.0227 -0.0333,0.0544 -0.0333,0.0881 0,0.0401 0.0178,0.076 0.0454,0.10053 h -0.11335 c -0.0466,0 -0.0843,0.0378 -0.0843,0.0839 v 1.03563 a 4.8802891,4.8802891 0 0 0 -2.57358,1.06469 l -0.73113,-0.73134 c -0.0329,-0.034 -0.0861,-0.034 -0.11909,0 l -0.0802,0.0801 c 0.002,-0.0378 -0.0106,-0.0745 -0.0389,-0.10281 -0.0238,-0.0227 -0.0546,-0.0378 -0.0857,-0.0389 l 0.0577,-0.0578 c 0.038,-0.0382 0.0444,-0.13455 -0.0155,-0.15232 l -0.0861,-0.0265 c -0.0543,-0.0151 -0.10401,-0.0484 -0.13852,-0.0151 l -0.11051,0.11036 c -0.08,-0.29178 -0.3634,-0.72106 -0.62657,-0.98427 -0.37194,-0.3719 -0.56194,-0.27137 -0.74115,-0.0922 -0.17923,0.17915 -0.27969,0.36926 0.0923,0.74117 0.26317,0.26305 0.69206,0.54682 0.98405,0.62676 l -0.10579,0.10582 c -0.0344,0.034 3.3e-4,0.0835 0.014,0.13871 l 0.0219,0.09 c 0.0147,0.0601 0.11464,0.0537 0.15266,0.0151 l 0.0571,-0.0571 c 0.002,0.0302 0.0151,0.0616 0.0389,0.0854 0.0283,0.0265 0.066,0.0412 0.10291,0.0389 l -0.0802,0.0801 c -0.0329,0.034 -0.0329,0.0862 0,0.11905 l 0.73113,0.73134 a 4.8802891,4.8802891 0 0 0 -1.05607,2.57337 h -1.044 c -0.0466,0 -0.0841,0.0378 -0.0841,0.0843 v 0.11339 c -0.0246,-0.0265 -0.0602,-0.0454 -0.10027,-0.0454 -0.034,0 -0.0645,0.0113 -0.088,0.034 v -0.0816 c 0,-0.0537 -0.0642,-0.12661 -0.1191,-0.0971 l -0.079,0.0427 c -0.0498,0.0265 -0.10783,0.0393 -0.10783,0.0881 v 0.15609 c -0.26302,-0.15005 -0.76676,-0.25285 -1.13895,-0.25285 -0.52603,0 -0.58932,0.20523 -0.58932,0.4588 0,0.25323 0.0633,0.45895 0.58932,0.45898 0.37221,-3e-5 0.87595,-0.1028 1.13895,-0.25285 v 0.14967 c 0,0.0488 0.0592,0.0586 0.10783,0.0881 l 0.079,0.048 c 0.0528,0.0302 0.11887,-0.0431 0.11887,-0.0968 v -0.0805 c 0.0234,0.0189 0.0543,0.034 0.0882,0.034 0.0401,0 0.0758,-0.0189 0.10027,-0.0454 v 0.11338 c 0,0.0469 0.0374,0.0843 0.0841,0.0843 h 1.044 a 4.8802891,4.8802891 0 0 0 1.05628,2.57336 l -0.73133,0.73134 c -0.0329,0.034 -0.0329,0.0862 0,0.11906 l 0.0802,0.0801 c -0.037,-0.002 -0.0746,0.0113 -0.10292,0.0389 -0.0238,0.0227 -0.0367,0.0544 -0.0389,0.0854 l -0.0577,-0.0578 c -0.038,-0.0382 -0.13481,-0.0442 -0.15265,0.0151 l -0.0257,0.0862 c -0.0162,0.054 -0.0486,0.10394 -0.014,0.13834 l 0.11029,0.11036 c -0.29201,0.0801 -0.72087,0.36321 -0.98405,0.62653 -0.37198,0.37191 -0.27148,0.56194 -0.0923,0.74117 0.17922,0.17915 0.36918,0.27968 0.74116,-0.0922 0.26316,-0.26305 0.54661,-0.69225 0.62656,-0.98422 l 0.10598,0.10582 c 0.0344,0.034 0.0833,-2.2e-4 0.13852,-0.0151 l 0.09,-0.0227 c 0.06,-0.0151 0.0534,-0.11452 0.0155,-0.15269 l -0.0571,-0.0571 c 0.031,-10e-4 0.0618,-0.0151 0.0857,-0.0389 0.0283,-0.0302 0.0412,-0.0661 0.0389,-0.10281 l 0.0802,0.0801 c 0.0329,0.034 0.0861,0.034 0.11909,0 l 0.73113,-0.73134 a 4.8802891,4.8802891 0 0 0 2.57358,1.06466 v 1.03562 c 0,0.0469 0.0378,0.0843 0.0843,0.0843 h 0.11338 c -0.0276,0.0227 -0.0454,0.0601 -0.0454,0.10016 0,0.034 0.0125,0.0646 0.0333,0.0881 h -0.0814 c -0.0538,0 -0.12666,0.0639 -0.097,0.11868 l 0.0426,0.079 c 0.0268,0.0499 0.0395,0.10771 0.0882,0.10771 h 0.15594 c -0.14993,0.26306 -0.2527,0.76676 -0.2527,1.13893 0,0.52607 0.20534,0.58934 0.45877,0.58934 0.25346,0 0.45898,-0.0635 0.45898,-0.58934 0,-0.37229 -0.10299,-0.87591 -0.25293,-1.13893 h 0.15001 c 0.0488,0 0.0584,-0.0593 0.088,-0.10771 l 0.0481,-0.079 c 0.0321,-0.0529 -0.0432,-0.11868 -0.097,-0.11868 h -0.0808 c 0.0204,-0.0227 0.0333,-0.0544 0.0333,-0.0881 0,-0.0401 -0.0174,-0.076 -0.0452,-0.10016 h 0.11334 c 0.0466,0 0.0843,-0.0378 0.0843,-0.0843 v -1.03562 a 4.8802891,4.8802891 0 0 0 2.57338,-1.06466 l 0.73133,0.73134 c 0.0329,0.034 0.0861,0.034 0.11909,0 l 0.0802,-0.0801 c -0.002,0.0378 0.0102,0.0745 0.0387,0.10281 0.0238,0.0227 0.0546,0.0378 0.0857,0.0389 l -0.0571,0.0571 c -0.038,0.0382 -0.0447,0.13795 0.0155,0.15269 l 0.09,0.0227 c 0.0553,0.0151 0.10401,0.048 0.13852,0.0151 l 0.10601,-0.10582 c 0.0799,0.29216 0.36337,0.72106 0.62656,0.98422 0.37195,0.37191 0.56215,0.27138 0.74136,0.0922 0.17922,-0.17915 0.27968,-0.36926 -0.0923,-0.74117 -0.26317,-0.26306 -0.69226,-0.5466 -0.98425,-0.62653 l 0.11029,-0.11036 c 0.0344,-0.034 0.002,-0.0843 -0.014,-0.13834 l -0.0257,-0.0862 c -0.0178,-0.0597 -0.11463,-0.0533 -0.15265,-0.0151 l -0.0577,0.0578 c -0.002,-0.0302 -0.0151,-0.0616 -0.0389,-0.0858 -0.0283,-0.0265 -0.0658,-0.0412 -0.10272,-0.0389 l 0.0802,-0.0801 c 0.0329,-0.034 0.0329,-0.0862 0,-0.11906 l -0.73134,-0.73111 a 4.8802891,4.8802891 0 0 0 1.05608,-2.57359 h 1.0442 c 0.0466,0 0.0841,-0.0378 0.0841,-0.0843 v -0.11339 c 0.0246,0.0265 0.0602,0.0454 0.10027,0.0454 0.034,0 0.0645,-0.0113 0.088,-0.034 v 0.0805 c 0,0.0537 0.0661,0.12926 0.1189,0.0971 l 0.079,-0.048 c 0.0486,-0.0302 0.10787,-0.0393 0.10783,-0.0881 v -0.14967 c 0.26302,0.15005 0.76696,0.25285 1.13916,0.25285 0.52603,0 0.58932,-0.2056 0.58932,-0.45894 0,-0.25361 -0.0633,-0.4588 -0.58932,-0.4588 -0.37221,0 -0.87615,0.10318 -1.13916,0.25285 v -0.15609 c 0,-0.0488 -0.058,-0.0612 -0.10783,-0.0881 l -0.079,-0.0427 c -0.0549,-0.0302 -0.11887,0.0431 -0.1189,0.0971 v 0.0816 c -0.0234,-0.0189 -0.0542,-0.034 -0.088,-0.034 -0.0401,0 -0.0759,0.0189 -0.10027,0.0453 v -0.11338 c 0,-0.0469 -0.0374,-0.0843 -0.0841,-0.0843 h -1.04279 a 4.8802891,4.8802891 0 0 0 -1.05178,-2.57933 l 0.72561,-0.72537 c 0.0329,-0.034 0.0329,-0.0862 0,-0.11906 l -0.0802,-0.0801 c 0.037,0.002 0.0744,-0.0113 0.10273,-0.0389 0.0238,-0.0227 0.037,-0.0544 0.0391,-0.0854 l 0.0571,0.0567 c 0.038,0.0382 0.13781,0.0446 0.15243,-0.0151 l 0.0219,-0.09 c 0.0136,-0.0552 0.0484,-0.10393 0.014,-0.13871 l -0.10598,-0.10582 c 0.29201,-0.0801 0.72106,-0.36359 0.98425,-0.6268 0.37194,-0.3719 0.27129,-0.56194 0.0921,-0.74116 -0.17922,-0.17915 -0.36918,-0.27969 -0.74115,0.0922 -0.26317,0.26305 -0.54661,0.69225 -0.62656,0.98422 l -0.11029,-0.11036 c -0.0344,-0.034 -0.0842,-0.002 -0.13852,0.0151 l -0.0861,0.0265 c -0.0598,0.0189 -0.0534,0.11452 -0.0155,0.15269 l 0.0575,0.0578 c -0.031,0.001 -0.0618,0.0151 -0.0857,0.0389 -0.0283,0.0265 -0.0411,0.0658 -0.0387,0.10281 l -0.0802,-0.0801 c -0.0329,-0.034 -0.0861,-0.034 -0.11909,0 l -0.7256,0.7256 a 4.8802891,4.8802891 0 0 0 -2.57911,-1.06833 v -1.02602 c 0,-0.0469 -0.0378,-0.0843 -0.0843,-0.0843 h -0.11335 c 0.0276,-0.0227 0.0452,-0.0601 0.0452,-0.10016 0,-0.034 -0.0125,-0.0646 -0.0333,-0.0881 h 0.0808 c 0.0537,0 0.12907,-0.0658 0.097,-0.11868 l -0.0481,-0.079 c -0.0295,-0.0487 -0.0392,-0.10771 -0.088,-0.10771 h -0.14998 c 0.14994,-0.26306 0.25293,-0.76676 0.25293,-1.13893 0,-0.52603 -0.20553,-0.58934 -0.45897,-0.58934 z m 2e-4,3.70126 c 0.16044,0 0.32092,0.004 0.40188,0.0113 0.7687,0.0779 1.42537,0.30652 2.04933,0.71289 0.27145,0.17688 0.46623,0.33449 0.70658,0.57256 0.24276,0.24038 0.41223,0.4475 0.59423,0.72541 0.41191,0.62887 0.64134,1.28507 0.71987,2.05912 0.0163,0.16176 0.0163,0.64188 0,0.80375 -0.078,0.76872 -0.30625,1.42519 -0.71271,2.04915 -0.1768,0.27137 -0.33475,0.46621 -0.57274,0.70658 -0.47646,0.48118 -1.03171,0.83675 -1.66607,1.06693 -0.32791,0.11905 -0.68562,0.20031 -1.05812,0.24037 -0.13871,0.0151 -0.58151,0.0265 -0.68816,0.0189 -0.18406,-0.0151 -0.31839,-0.0265 -0.43197,-0.0442 -0.83512,-0.12246 -1.61521,-0.47856 -2.26255,-1.03234 -0.13844,-0.11868 -0.3789,-0.35868 -0.49478,-0.49455 -0.48097,-0.56364 -0.82635,-1.26368 -0.97464,-1.97567 -0.0703,-0.33789 -0.0947,-0.57933 -0.0947,-0.93763 0,-0.27817 0.009,-0.41794 0.0446,-0.65786 0.12212,-0.83414 0.47837,-1.61541 1.03213,-2.26277 0.27039,-0.31597 0.60527,-0.60933 0.95683,-0.83833 0.62397,-0.40646 1.28063,-0.63493 2.04933,-0.7129 0.081,-0.008 0.24125,-0.0113 0.40168,-0.0113 z m -0.11052,0.11754 -0.0829,0.004 c -0.9442,0.0431 -1.81977,0.37719 -2.56908,0.98097 -0.16138,0.13002 -0.48897,0.45782 -0.61899,0.6192 -0.60368,0.74929 -0.93816,1.62486 -0.98118,2.56906 l -0.004,0.0828 h 1.42359 1.42379 l 0.0587,0.0446 0.0589,0.0446 0.46512,4.2e-4 a 0.94664239,0.94664239 0 0 0 -0.002,0.0227 0.94664239,0.94664239 0 0 0 0.001,0.0189 h -0.45979 l -0.0614,0.0453 -0.0614,0.0454 h -1.42358 -1.42379 l 0.004,0.0828 c 0.043,0.9442 0.3775,1.81981 0.98119,2.5691 0.13001,0.16138 0.45761,0.48918 0.61899,0.6192 0.73167,0.58945 1.58292,0.92224 2.50012,0.9775 0.0698,0.004 0.13244,0.008 0.13935,0.0113 0.01,8e-4 0.0128,-0.3016 0.0128,-1.48293 h -2e-4 l 4e-4,-1.48411 0.045,-0.0597 0.0448,-0.0593 v -0.336 a 0.94664239,0.94664239 0 0 0 0.0287,0.001 0.94664239,0.94664239 0 0 0 0.011,-8e-4 v 0.33487 l 0.045,0.0593 0.0451,0.0593 4e-4,1.48252 2e-4,1.48252 0.0829,-0.004 c 0.0456,-10e-4 0.15511,-0.0113 0.24352,-0.0189 v 1.9e-4 c 0.84572,-0.0809 1.63897,-0.40898 2.32557,-0.96216 0.16138,-0.13001 0.48898,-0.45758 0.61899,-0.61897 0.60369,-0.74933 0.93816,-1.62489 0.98119,-2.5691 l 0.004,-0.0828 -1.48251,-4.1e-4 -1.48252,-1.9e-4 -0.0595,-0.045 -0.0595,-0.045 -0.34439,-1.9e-4 a 0.939683,0.939683 0 0 1 -0.91796,0.91937 v -0.28838 -0.6313 h 0.63127 0.30305 a 0.94664239,0.94664239 0 0 0 10e-4,-0.0189 0.94664239,0.94664239 0 0 0 -7.9e-4,-0.0227 h 0.32719 l 0.0595,-0.0446 0.0595,-0.0446 1.48252,-4.1e-4 1.48252,-3.8e-4 -0.004,-0.0828 c -0.043,-0.9442 -0.3775,-1.82 -0.98118,-2.56929 -0.13002,-0.16138 -0.45782,-0.48899 -0.6192,-0.61901 -0.7493,-0.60367 -1.62468,-0.93815 -2.56887,-0.98116 l -0.0831,-0.004 v 1.42356 1.42378 l -0.0452,0.0612 -0.0452,0.0616 v 0.45161 a 0.94664239,0.94664239 0 0 0 -0.0113,-1.9e-4 0.94664239,0.94664239 0 0 0 -0.0287,10e-4 v -0.45346 l -0.0452,-0.0616 -0.0452,-0.0612 v -1.42379 z m -0.29771,0.37644 c -0.0291,0.10507 -0.0459,0.27099 -0.0459,0.53923 0,0.53151 0.0651,1.33062 0.16536,1.93697 a 1.5459302,1.5459302 0 0 0 -0.59301,0.24907 c -0.35793,-0.50011 -0.87802,-1.11273 -1.25457,-1.48929 -0.18576,-0.18557 -0.31426,-0.2914 -0.40863,-0.34658 a 4.0315428,4.0315428 0 0 1 2.1367,-0.88951 z m 0.81666,0 a 4.0315428,4.0315428 0 0 1 2.13671,0.88993 c -0.0945,0.0548 -0.2225,0.15949 -0.40905,0.34583 -0.37599,0.37606 -0.89523,0.98732 -1.25313,1.48701 a 1.5459302,1.5459302 0 0 0 -0.59424,-0.2502 c 0.0999,-0.60597 0.16513,-1.40308 0.16513,-1.93368 0,-0.26722 -0.0166,-0.43397 -0.0454,-0.53923 z m -3.53144,1.47228 c 0.0555,0.0941 0.16101,0.22186 0.34481,0.40558 0.37746,0.37757 0.992,0.8993 1.49275,1.25722 a 1.5459302,1.5459302 0 0 0 -0.23554,0.59343 c -0.6082,-0.10205 -1.41735,-0.16819 -1.95398,-0.16819 -0.24933,0 -0.41178,0.0151 -0.51811,0.0393 a 4.0315428,4.0315428 0 0 1 0.87007,-2.12753 z m 6.2458,0 a 4.0315428,4.0315428 0 0 1 0.87007,2.12855 c -0.10628,-0.0265 -0.26717,-0.0404 -0.51811,-0.0404 -0.53597,0 -1.34394,0.0661 -1.95193,0.16781 a 1.5459302,1.5459302 0 0 0 -0.23656,-0.59399 c 0.50052,-0.35792 1.1144,-0.87908 1.49153,-1.2562 0.18383,-0.18368 0.28951,-0.31143 0.34499,-0.40558 z m -3.10233,1.58097 a 0.939683,0.939683 0 0 1 0.91754,0.91631 h -0.28649 -0.63106 v -0.68795 z m -0.0405,0.002 v 0.2264 l -2.1e-4,0.68795 -0.69061,-8e-4 -0.22428,-2.2e-4 a 0.939683,0.939683 0 0 1 0.91509,-0.91318 z m -0.91591,0.9546 h 0.22795 0.68795 v 0.63107 0.28573 a 0.939683,0.939683 0 0 1 -0.91591,-0.91691 z m -0.57561,0.288 a 1.5459302,1.5459302 0 0 0 0.24843,0.5791 c -0.50452,0.35792 -1.132,0.88993 -1.51506,1.27294 -0.16641,0.1663 -0.27012,0.288 -0.32946,0.3792 a 4.0315428,4.0315428 0 0 1 -0.88092,-2.09986 c 0.10647,0.0227 0.26812,0.0385 0.51362,0.0385 0.53942,0 1.35421,-0.0669 1.96338,-0.1697 z m 3.02274,0 c 0.60917,0.1028 1.42422,0.1697 1.96359,0.1697 0.2454,0 0.40695,-0.0151 0.51341,-0.0382 a 4.0315428,4.0315428 0 0 1 -0.88153,2.10024 c -0.0591,-0.0915 -0.16124,-0.21203 -0.32882,-0.37976 -0.38305,-0.38306 -1.01034,-0.91491 -1.51485,-1.27299 a 1.5459302,1.5459302 0 0 0 0.2482,-0.5791 z m -2.37182,0.97523 a 1.5459302,1.5459302 0 0 0 0.57929,0.23509 c -0.10443,0.61081 -0.17272,1.43614 -0.17272,1.98058 0,0.2298 0.0121,0.38627 0.0336,0.49274 a 4.0315428,4.0315428 0 0 1 -2.09251,-0.86207 c 0.0911,-0.0597 0.21158,-0.16252 0.37652,-0.32731 0.384,-0.384 0.9176,-1.01359 1.27564,-1.51873 z m 1.72111,0 c 0.35807,0.50517 0.89165,1.13477 1.27563,1.51873 0.16494,0.16479 0.28543,0.26797 0.37652,0.32731 a 4.0315428,4.0315428 0 0 1 -2.09271,0.86207 c 0.0215,-0.10658 0.034,-0.26268 0.034,-0.49274 0,-0.54444 -0.0682,-1.36978 -0.17269,-1.98059 a 1.5459302,1.5459302 0 0 0 0.57929,-0.23508 z m 17.47186,21.98464 -0.40127,0.29745 q -0.14876,-0.20069 -0.34787,-0.32957 -0.17681,-0.14514 -0.39974,0.0189 -0.13376,0.099 -0.4151,0.79143 -0.24253,0.69804 -0.57497,1.60093 -0.29364,0.90864 -0.61533,1.87264 -0.32168,0.96401 -0.57498,1.60094 l 5.52302,-0.0529 q 0.39974,-0.0189 0.63843,-0.0227 0.23868,-0.004 0.37244,-0.10319 0.15606,-0.11565 0.0355,-0.37152 -0.10417,-0.23358 -0.23641,-0.41205 l 0.40127,-0.29745 2.89249,3.90127 -0.40127,0.29745 q -0.13225,-0.17839 -0.2925,-0.30123 -0.13799,-0.13946 -0.40398,-0.21883 -0.22715,-0.0733 -0.62114,-0.0922 -0.35516,-0.0113 -0.95478,0.0151 l -8.18246,0.19352 -3.96816,2.94209 q -0.40127,0.29745 -0.0212,0.81022 l -0.40128,0.29745 -2.6115,-3.52229 0.40127,-0.29745 q 0.14876,0.20069 0.3371,0.26834 0.21063,0.051 0.41127,-0.0975 l 3.96816,-2.9421 2.82911,-8.76525 q 0.10722,-0.32126 0.0155,-0.7714 -0.0754,-0.42781 -0.24064,-0.65076 l 0.40127,-0.29745 z m 7.84241,21.78891 1.67305,-5.41112 -5.3736,2.1388 z m -11.25706,-3.0638 q 0.30704,0.19729 0.65478,0.0975 0.36854,-0.0816 0.77144,-0.24416 l 10.99735,-4.68616 q 0.38452,-0.14173 0.69069,-0.27855 0.32696,-0.1183 0.47403,-0.2846 0.18383,-0.20787 0.11183,-0.41975 -0.072,-0.21166 -0.20152,-0.40052 l 0.33089,-0.37417 3.51345,3.10684 -0.3309,0.37418 q -0.18228,-0.0873 -0.40135,-0.13266 -0.2007,-0.0661 -0.4029,0.16252 -0.14707,0.16629 -0.23177,0.38781 -0.0639,0.24 -0.15737,0.63878 l -3.15795,12.2852 q -0.0983,0.32051 -0.0238,0.57162 0.0952,0.26948 0.23195,0.57558 l -0.3309,0.37418 -3.65897,-3.23554 0.3309,-0.37418 q 0.0832,0.0737 0.26305,0.12133 0.17991,0.048 0.2902,-0.0767 0.18383,-0.20787 0.31166,-0.68761 l 0.57039,-2.23699 -5.07267,-4.48565 -2.05367,0.81426 q -0.59396,0.25285 -0.75941,0.43986 -0.20221,0.22866 0.19279,0.57797 l -0.3309,0.37417 -2.95213,-2.61048 z m 31.00386,20.03781 q -0.0731,-0.0397 -0.14623,-0.0798 -0.0355,-0.051 -0.10858,-0.0907 -0.14623,-0.0798 -0.86607,-0.0926 -0.69546,4.5e-4 -1.74758,-0.0987 -1.02775,-0.0858 -2.24612,-0.40161 -1.21838,-0.31597 -2.38824,-0.95301 -1.53545,-0.83618 -2.73667,-1.99596 -1.20122,-1.15979 -1.85996,-2.56135 -0.6211,-1.41268 -0.59113,-2.97638 0.0299,-1.56367 0.91924,-3.19661 0.87601,-1.60857 2.17333,-2.48209 1.31059,-0.89787 2.83424,-1.14252 1.54802,-0.2313 3.18725,0.12397 1.63922,0.35566 3.17467,1.19169 1.24298,0.67691 2.13605,1.41607 0.91745,0.75243 1.55353,1.38323 0.63608,0.63081 0.9686,1.0647 0.33252,0.43389 0.43,0.48699 0.12185,0.0665 0.26136,-0.0151 0.16384,-0.0688 0.25239,-0.11527 l 0.20633,0.49156 -3.50704,1.91373 -0.15081,-0.3035 q 0.0398,-0.0729 0.0553,-0.15949 0.0398,-0.0729 0.0685,-0.18407 0.0973,-0.2948 -0.19544,-0.80167 -0.27942,-0.53137 -0.81802,-1.10911 -0.51422,-0.56443 -1.16574,-1.10883 -0.62716,-0.53114 -1.23646,-0.86298 -1.02363,-0.55745 -2.13342,-0.78263 -1.08542,-0.21203 -2.09748,-0.0378 -0.9877,0.18898 -1.8533,0.79197 -0.85234,0.5786 -1.42307,1.62663 -0.57073,1.04799 -0.60768,2.10229 -0.0238,1.02992 0.35346,1.9621 0.40152,0.94549 1.16839,1.74233 0.79124,0.8101 1.81487,1.36754 0.77991,0.42474 1.72585,0.71868 0.9592,0.26948 1.812,0.38642 0.86606,0.0926 1.51496,0.004 0.68653,-0.10016 0.85908,-0.41696 0.0929,-0.17046 0.0618,-0.34545 l 0.44739,-0.0113 0.20164,3.45944 z m 20.77939,-5.7343 q 0.1268,-0.48314 -0.46373,-0.63814 l 0.12681,-0.48317 4.13379,1.08495 -0.12681,0.48317 q -0.18788,-0.0495 -0.38418,0.0427 -0.16241,0.0722 -0.22579,0.3137 l -3.19853,12.18664 q -0.0634,0.24151 0.0355,0.41102 0.13289,0.14967 0.32077,0.1988 l -0.1268,0.48318 -4.13379,-1.08499 0.1268,-0.48318 q 0.59054,0.15496 0.71735,-0.32806 l 1.32451,-5.04646 -8.64338,-2.26855 -1.3245,5.04642 q -0.0634,0.24152 0.0355,0.41103 0.13289,0.14967 0.32077,0.1988 l -0.1268,0.48318 -4.05327,-1.06383 0.12681,-0.48314 q 0.51001,0.1338 0.63683,-0.34922 l 3.19852,-12.1866 q 0.1268,-0.48317 -0.3832,-0.61704 l 0.1268,-0.48318 4.05326,1.06382 -0.1268,0.48318 q -0.18792,-0.0495 -0.38418,0.0427 -0.16241,0.0722 -0.22579,0.3137 l -1.19768,4.56325 8.64338,2.26858 z m 14.44062,14.05821 q -0.0155,0.49928 0.59461,0.5184 l -0.0155,0.49932 -4.2717,-0.1338 0.0155,-0.49927 q 0.19415,0.008 0.33634,-0.10054 0.17075,-0.13342 0.17858,-0.38313 l 0.3456,-11.03985 -4.57683,-0.14324 q -0.24964,-0.008 -0.50363,0.12321 -0.22624,0.13191 -0.23841,0.52006 l -0.49929,-0.0151 0.12155,-3.88335 0.49929,0.0151 q -0.0121,0.38831 0.20542,0.53397 0.24529,0.14665 0.49494,0.15421 l 12.31583,0.38551 q 0.24964,0.008 0.4759,-0.12397 0.25398,-0.13077 0.26615,-0.51919 l 0.49929,0.0151 -0.12159,3.88335 -0.49929,-0.0151 q 0.0121,-0.38835 -0.23316,-0.53484 -0.21758,-0.14551 -0.4672,-0.15345 l -4.57684,-0.14325 z m 35.03,-7.15604 q -0.0796,0.0227 -0.15935,0.0484 -0.0611,-0.0113 -0.14086,0.0151 -0.15935,0.0484 -0.67357,0.55218 -0.48765,0.49584 -1.29641,1.17604 -0.78221,0.67212 -1.86219,1.31853 -1.08,0.64645 -2.35479,1.03291 -1.67317,0.50728 -3.34237,0.54935 -1.66921,0.042 -3.13004,-0.47203 -1.44233,-0.54867 -2.53542,-1.66726 -1.0931,-1.11855 -1.63258,-2.89795 -0.53142,-1.75283 -0.24351,-3.29012 0.27987,-1.56382 1.17467,-2.82107 0.92136,-1.26528 2.32485,-2.18378 1.4035,-0.9185 3.07667,-1.42579 1.35446,-0.41061 2.50776,-0.5283 1.17987,-0.12586 2.07563,-0.13644 0.89578,-0.0113 1.43824,0.0571 0.54246,0.0676 0.6487,0.034 0.13277,-0.0404 0.17219,-0.1973 0.0659,-0.16516 0.0949,-0.26078 l 0.495,0.19804 -1.09727,3.84159 -0.32194,-0.10545 q -0.0242,-0.0797 -0.0749,-0.15118 -0.0242,-0.0797 -0.0829,-0.17801 -0.1417,-0.27591 -0.70831,-0.42327 -0.57466,-0.17386 -1.36421,-0.1954 -0.76297,-0.0302 -1.60803,0.0525 -0.8185,0.0741 -1.48246,0.27553 -1.11545,0.33827 -2.0546,0.97092 -0.91258,0.62464 -1.49758,1.46899 -0.55844,0.8363 -0.73617,1.87616 -0.18576,1.01329 0.16045,2.15531 0.3462,1.14199 1.07147,1.9081 0.7172,0.73954 1.64601,1.12493 0.95539,0.3772 2.06122,0.39005 1.1324,0.004 2.24783,-0.33335 0.84987,-0.25777 1.72305,-0.72537 0.86512,-0.49429 1.54673,-1.0199 0.67357,-0.55223 1.06546,-1.07702 0.41038,-0.55941 0.30572,-0.90467 -0.0564,-0.18595 -0.20285,-0.28649 l 0.30739,-0.32503 2.60633,2.28374 z m 18.35299,-6.88415 q -0.20371,-0.36283 -0.47288,-0.27552 -0.24499,0.0737 -0.60801,0.27741 l -11.52013,6.4644 -0.24446,-0.43563 q 0.72605,-0.40744 0.48161,-0.84306 l -6.16564,-10.9877 q -0.24446,-0.43562 -0.97052,-0.0265 l -0.24446,-0.43563 4.16275,-2.3359 0.24446,0.43567 q -0.67766,0.38025 -0.4332,0.81588 l 5.40511,9.63239 8.03506,-4.50882 q 0.36302,-0.20372 0.48577,-0.49535 0.14695,-0.30538 -0.0159,-0.59561 l 0.43563,-0.24454 1.86057,3.31567 z m -2.5264,-16.5668 q -0.45564,0.40638 -0.12314,0.77919 l 5.54176,6.2132 q 1.16378,1.30481 2.43555,1.06296 1.27401,-0.2812 2.88945,-1.72188 1.61543,-1.44087 2.019,-2.65614 0.4058,-1.25443 -0.75798,-2.55919 l -5.54176,-6.21324 q -0.33252,-0.37267 -0.95383,0.18141 l -0.33252,-0.37266 3.31371,-2.95563 0.33252,0.37266 q -0.49705,0.44334 -0.16456,0.81612 l 5.44941,6.10968 q 1.08988,1.22196 1.45822,2.34368 0.34987,1.10106 0.0706,2.20547 -0.27931,1.10442 -1.18778,2.2122 -0.88776,1.0893 -2.25466,2.3085 -1.36692,1.2192 -2.57094,1.99562 -1.18332,0.75791 -2.31235,0.90962 -1.12904,0.15156 -2.18308,-0.32126 -1.07251,-0.49368 -2.16239,-1.71564 l -5.44941,-6.10964 q -0.33252,-0.37266 -0.9124,0.14438 l -0.33252,-0.37267 3.39656,-3.02951 z m 20.01219,-14.37989 q 0.71424,-1.02444 0.92411,-1.85923 0.20299,-0.87341 -0.63933,-1.46067 -0.84231,-0.58726 -1.56889,-0.079 -0.73347,0.46972 -1.44771,1.49416 l -3.03154,4.34812 2.73181,1.90461 z m 5.19045,3.61878 q 0.99994,-1.43422 0.99594,-2.35041 -0.011,-0.9549 -0.73938,-1.46279 -0.72848,-0.50789 -1.60543,-0.17197 -0.88384,0.29707 -1.88378,1.73144 l -3.03155,4.34812 3.23265,2.25385 z m -10.1975,-6.43313 q 0.73011,-1.0472 1.59471,-1.8991 0.84186,-0.86782 1.75264,-1.34926 0.88801,-0.49727 1.82012,-0.52403 0.90933,-0.0427 1.79717,0.57638 1.06995,0.74597 1.20157,1.81882 0.10882,1.05699 -0.20734,2.18982 l 0.0455,0.0302 q 1.06469,-0.84779 2.27831,-1.08423 1.20674,-0.27515 2.50434,0.62963 0.68296,0.47614 1.06852,1.18477 0.36279,0.69275 0.38265,1.58619 0.0355,0.87073 -0.30111,1.88761 -0.35962,1.00101 -1.1056,2.07099 l -5.82502,8.3548 -0.40976,-0.28573 q 0.44441,-0.63742 0.0348,-0.92312 l -10.33538,-7.20585 q -0.40977,-0.28574 -0.85419,0.35187 l -0.40977,-0.28573 z M 221.98022,284.34379 q -0.0132,0.082 -0.0261,0.16441 -0.0363,0.0507 -0.0493,0.13267 -0.0261,0.1644 0.20209,0.84721 0.23271,0.65537 0.49078,1.68016 0.26245,0.99734 0.37156,2.25127 0.10912,1.25393 -0.10072,2.5694 -0.27542,1.72653 -0.96743,3.24612 -0.69203,1.51956 -1.79313,2.60856 -1.12413,1.05721 -2.60806,1.55119 -1.48393,0.49395 -3.3201,0.20107 -1.80877,-0.28838 -3.06538,-1.21961 -1.28403,-0.93551 -2.02347,-2.28998 -0.73507,-1.38187 -0.94742,-3.0457 -0.21235,-1.66382 0.0631,-3.39038 0.22294,-1.39767 0.62142,-2.48633 0.40284,-1.11606 0.785,-1.92627 0.38217,-0.81026 0.6801,-1.26856 0.29794,-0.45835 0.3154,-0.56795 0.0219,-0.1372 -0.10205,-0.24114 -0.11954,-0.13152 -0.19302,-0.19956 l 0.39444,-0.35867 2.97509,2.66657 -0.23554,0.2434 q -0.0822,-0.0113 -0.16879,0.001 -0.0822,-0.0113 -0.19619,-0.004 -0.31019,0.008 -0.69035,0.45192 -0.40756,0.44084 -0.77223,1.14145 -0.36031,0.67321 -0.65589,1.46915 -0.29121,0.76852 -0.40049,1.45368 -0.18361,1.15101 -0.0253,2.27229 0.16275,1.09387 0.6663,1.98916 0.50793,0.8679 1.3654,1.48241 0.83007,0.61017 2.00851,0.79812 1.17843,0.18784 2.18454,-0.12926 0.97869,-0.32164 1.73142,-0.98842 0.7571,-0.69422 1.25207,-1.68318 0.49936,-1.01635 0.68296,-2.1674 0.13988,-0.87697 0.10102,-1.86675 -0.0662,-0.99417 -0.24094,-1.83704 -0.20209,-0.84718 -0.50272,-1.42911 -0.32364,-0.61365 -0.67992,-0.67049 -0.19185,-0.0302 -0.34636,0.0571 l -0.15806,-0.41866 3.1935,-1.3454 z m 0.9084,-12.78659 -5.65955,0.22072 3.80324,4.35723 z m 0.85191,11.63543 q 0.0841,-0.35528 -0.12574,-0.64993 -0.19948,-0.32051 -0.48652,-0.64649 l -8.07497,-8.81458 q -0.26131,-0.31559 -0.49208,-0.55891 -0.22034,-0.26911 -0.42607,-0.35263 -0.25719,-0.10432 -0.43305,0.034 -0.17586,0.13833 -0.31075,0.32315 l -0.46292,-0.18784 1.76245,-4.34634 0.46292,0.18784 q -0.0215,0.20069 0.008,0.42263 0.004,0.21127 0.28705,0.32617 0.20576,0.0835 0.44278,0.0896 0.24744,-0.0189 0.65479,-0.0639 l 12.63637,-1.10483 q 0.33506,-0.0151 0.54706,-0.16744 0.22247,-0.17914 0.46576,-0.41004 l 0.46292,0.18785 -1.83545,4.52636 -0.46293,-0.18784 q 0.0417,-0.10281 0.0272,-0.28838 -0.0147,-0.18558 -0.16891,-0.24832 -0.25716,-0.10431 -0.7521,-0.0654 l -2.29942,0.2056 -2.5446,6.27515 1.45054,1.66632 q 0.43579,0.47615 0.66725,0.57003 0.2829,0.1149 0.48104,-0.3738 l 0.46293,0.18785 -1.48088,3.65193 z m 4.67038,-20.53705 0.27159,-0.15005 q 0.2058,0.14173 0.42876,0.16025 0.38447,0.0302 0.9734,-0.24 0.58179,-0.30727 1.19649,-0.76013 0.63042,-0.47581 1.2237,-1.04455 0.57041,-0.58447 0.93214,-1.11035 0.26737,-0.38873 0.64626,-1.03756 0.35603,-0.66451 0.58202,-1.38486 0.22598,-0.7203 0.2047,-1.37491 -0.0212,-0.65465 -0.5472,-1.01635 -0.52591,-0.36171 -1.06051,-0.12322 -0.51888,0.21581 -1.0893,0.80017 -0.55469,0.5616 -1.15946,1.39188 -0.61191,0.7917 -1.27814,1.61341 -0.66622,0.82171 -1.40818,1.55762 -0.72624,0.71308 -1.54818,1.12452 -0.82907,0.37304 -1.75239,0.34394 -0.93046,-0.0673 -1.98226,-0.79083 -0.70883,-0.48752 -1.17461,-1.27945 -0.45006,-0.81483 -0.50415,-1.86251 -0.0541,-1.04769 0.34923,-2.31965 0.38046,-1.28772 1.35555,-2.70538 0.83354,-1.21187 1.62982,-1.97779 0.79628,-0.76596 1.44243,-1.26463 0.66188,-0.52158 1.14362,-0.83018 0.49747,-0.33146 0.70192,-0.62872 0.2202,-0.32013 0.17734,-0.5517 l 0.37164,-0.14853 1.773,3.54361 -0.24873,0.16592 q -0.35158,-0.17462 -0.65173,-0.17877 -0.4002,-0.008 -0.95053,0.25549 -0.55748,0.22299 -1.15645,0.65295 -0.59897,0.43008 -1.16938,1.01454 -0.59328,0.56874 -1.04937,1.23183 -0.34598,0.50305 -0.63198,1.11469 -0.29314,0.57309 -0.43189,1.11765 -0.13875,0.54451 -0.0688,1.03048 0.0628,0.44739 0.45151,0.71475 0.54877,0.37757 1.09052,0.17764 0.55747,-0.22299 1.13503,-0.76872 0.59328,-0.56874 1.20518,-1.36044 0.62764,-0.81457 1.29387,-1.63627 0.66622,-0.82171 1.41533,-1.51903 0.74196,-0.73595 1.57103,-1.1088 0.82194,-0.41148 1.72953,-0.35981 0.92332,0.0302 1.95226,0.73648 1.189,0.81781 1.5032,1.97707 0.32992,1.13635 0.11955,2.37263 -0.21037,1.23629 -0.80522,2.44392 -0.60198,1.16905 -1.2468,2.10652 -0.89644,1.30333 -1.64699,2.10074 -0.7577,0.75878 -1.37239,1.21175 -0.62183,0.41435 -1.0178,0.64725 -0.41883,0.21732 -0.59183,0.4687 -0.11009,0.15987 -0.0215,0.42304 l -0.4031,0.19427 z m 5.7787,-23.15603 q -0.31793,0.26872 0.0223,0.67143 0.0896,0.10583 0.23615,0.2366 0.16777,0.11263 0.58157,0.34431 l 7.24791,3.97584 0.0424,-0.034 -2.80475,-7.87615 q -0.12688,-0.36511 -0.21316,-0.5102 -0.083,-0.18407 -0.17258,-0.29027 -0.34034,-0.40275 -0.6159,-0.1697 l -0.32244,-0.38154 3.62457,-3.0632 0.32244,0.38155 q -0.14839,0.12548 -0.12238,0.28497 0.0261,0.15988 0.13345,0.28687 0.17915,0.21203 0.82102,0.54153 l 7.31956,4.06065 0.0424,-0.034 -2.86983,-8.03917 q -0.12034,-0.44334 -0.33528,-0.6977 -0.10749,-0.12699 -0.30304,-0.14362 -0.21347,-0.0378 -0.36186,0.0877 l -0.32243,-0.38155 3.13706,-2.65115 0.32243,0.38151 q -0.23316,0.19691 -0.14536,0.55891 0.109,0.34394 0.28305,0.85085 l 3.79061,10.67649 q 0.15942,0.44662 0.26842,0.79056 0.13017,0.32617 0.27349,0.49557 0.12541,0.14854 0.33887,0.18596 0.19556,0.0151 0.38632,-0.14476 l 0.32243,0.38154 -3.34902,2.8303 -0.32243,-0.3815 q 0.0914,-0.15005 0.14687,-0.34205 0.0767,-0.21014 -0.0487,-0.35868 -0.14332,-0.1697 -0.40722,-0.30992 -0.24272,-0.15836 -0.73474,-0.39647 l -7.72201,-4.1929 -0.0424,0.034 2.86655,8.07829 q 0.38067,1.09538 0.55981,1.30733 0.2866,0.33903 0.63381,0.19125 l 0.32244,0.38154 -3.28543,2.77656 -0.32243,-0.38155 q 0.12718,-0.10734 0.20062,-0.27855 0.0734,-0.17121 -0.052,-0.31937 -0.14332,-0.1697 -0.38931,-0.28875 -0.22481,-0.1372 -0.48873,-0.27742 l -10.78961,-5.88794 q -0.28184,-0.16138 -0.5132,-0.22034 -0.2281,-0.0979 -0.47589,0.0389 l -0.32243,-0.38154 3.28543,-2.77655 z m 33.91717,-18.89564 q -0.12865,-0.27704 -0.41362,-0.29745 -0.27152,-0.0574 -0.80002,0.18822 l -8.15422,3.78921 1.4502,3.12075 4.93279,-2.29224 q 0.50335,-0.23396 0.72172,-0.48839 0.20666,-0.27969 -0.0623,-0.85849 l 0.45301,-0.21052 1.82444,3.9261 -0.45301,0.21052 q -0.26898,-0.57883 -0.61599,-0.60121 -0.35872,-0.0476 -0.86206,0.18633 l -4.9328,2.29225 1.61393,3.47312 8.40589,-3.90618 q 0.3775,-0.17537 0.52215,-0.45687 0.16981,-0.29329 0.0295,-0.59512 l 0.45301,-0.21052 1.60223,3.44791 -0.45301,0.21052 q -0.17541,-0.37758 -0.45049,-0.31068 -0.2499,0.0548 -0.6274,0.23017 l -11.72798,5.44993 -0.21052,-0.45301 q 0.17616,-0.082 0.25523,-0.24114 0.0925,-0.19615 -0.0129,-0.42251 l -5.30959,-11.42596 q -0.10526,-0.2264 -0.30304,-0.25701 -0.18433,-0.0673 -0.3605,0.0151 l -0.21052,-0.45302 11.4763,-5.33295 q 0.52852,-0.24567 0.65968,-0.49017 0.14465,-0.28157 0.0159,-0.55827 l 0.45301,-0.21052 1.54376,3.32209 z m 21.29113,6.99481 q -0.094,-0.40554 -0.37686,-0.39692 -0.25583,0.002 -0.66138,0.0964 l -12.86886,2.98239 -0.11278,-0.48661 q 0.81106,-0.18785 0.69829,-0.67461 l -2.84454,-12.27409 q -0.11278,-0.48662 -0.92384,-0.29859 l -0.11278,-0.48665 4.65009,-1.07765 0.11278,0.48665 q -0.75699,0.17537 -0.64421,0.66206 l 2.49367,10.76009 8.97576,-2.08014 q 0.40553,-0.0941 0.60499,-0.33978 0.22651,-0.2521 0.1513,-0.57634 l 0.48663,-0.11263 0.85837,3.70386 z m 15.28963,-0.50468 q -0.0129,-0.41609 -0.29174,-0.4631 -0.25134,-0.048 -0.66742,-0.034 l -13.20381,0.40207 -0.0151,-0.49932 q 0.83217,-0.0265 0.81697,-0.52463 l -0.38348,-12.59354 q -0.0151,-0.49931 -0.84738,-0.47395 l -0.0151,-0.49932 4.77113,-0.14513 0.0151,0.49931 q -0.7767,0.0227 -0.76149,0.52294 l 0.33618,11.04015 9.20939,-0.28044 q 0.41609,-0.0113 0.65982,-0.2143 0.27149,-0.20258 0.26136,-0.53548 l 0.4993,-0.0151 0.11569,3.80027 z m 24.04785,2.76987 q -0.0801,-0.0227 -0.16026,-0.0454 -0.0459,-0.0416 -0.126,-0.0642 -0.16026,-0.0454 -0.86498,0.10205 -0.67801,0.15496 -1.72584,0.29178 -1.02113,0.14475 -2.27923,0.10696 -1.25811,-0.0378 -2.54022,-0.39905 -1.68277,-0.47444 -3.11148,-1.33859 -1.42872,-0.86419 -2.38217,-2.08452 -0.91922,-1.23954 -1.23714,-2.77085 -0.31794,-1.53135 0.18663,-3.32096 0.49704,-1.76288 1.56806,-2.9026 1.07856,-1.16644 2.50987,-1.74323 1.45803,-0.56927 3.13527,-0.58659 1.67724,-0.0189 3.36,0.45718 1.36225,0.38407 2.39714,0.90655 1.06159,0.52997 1.82184,1.00381 0.76024,0.47388 1.1808,0.8231 0.42054,0.34923 0.52738,0.37939 0.13357,0.0378 0.25134,-0.0733 0.14449,-0.10356 0.22053,-0.16857 l 0.3103,0.43348 -2.99467,2.64457 -0.21438,-0.2623 q 0.0227,-0.0801 0.0185,-0.16781 0.0227,-0.0801 0.0261,-0.19464 0.0295,-0.30879 -0.36854,-0.73826 -0.39042,-0.45608 -1.04383,-0.89983 -0.62669,-0.4362 -1.38283,-0.82239 -0.72942,-0.37867 -1.39718,-0.56693 -1.12185,-0.31634 -2.25392,-0.28951 -1.10538,0.034 -2.05321,0.4303 -0.9211,0.40347 -1.63123,1.1836 -0.7026,0.75341 -1.02643,1.90197 -0.32383,1.14856 -0.12582,2.18476 0.20556,1.00947 0.78024,1.83469 0.6014,0.83274 1.52602,1.43943 0.95135,0.61422 2.0732,0.93052 0.85473,0.24114 1.84231,0.31748 0.99513,0.0499 1.85257,-0.0265 0.86499,-0.10205 1.47792,-0.33298 0.64717,-0.2502 0.74507,-0.59728 0.0528,-0.18708 -0.0166,-0.35074 l 0.43421,-0.10809 0.96461,3.32836 z m 15.72827,-3.34054 q -0.9143,-0.52551 -1.99457,-0.76229 -1.08026,-0.2366 -2.14422,-0.11225 -1.02607,0.11451 -1.93959,0.64573 -0.91351,0.53121 -1.49435,1.54178 -0.58083,1.01057 -0.58003,2.06733 7.8e-4,1.05675 0.40454,2.02503 0.44163,0.95803 1.19,1.7723 0.74836,0.81422 1.66266,1.33972 0.91432,0.52551 1.99458,0.7623 1.08027,0.2366 2.10632,0.12245 1.06396,-0.12472 1.97749,-0.65593 0.91352,-0.53125 1.49434,-1.54182 0.58083,-1.01057 0.58005,-2.06733 -7.9e-4,-1.05676 -0.44244,-2.01479 -0.40375,-0.96828 -1.1521,-1.78254 -0.74837,-0.81422 -1.66268,-1.33973 z m 1.2723,-2.21359 q 1.32334,0.76059 2.45971,1.9579 1.1502,1.17325 1.82468,2.61721 0.6745,1.44401 0.69104,3.08599 0.0302,1.6179 -0.92387,3.2781 -0.95421,1.66019 -2.38132,2.47241 -1.4133,0.78819 -3.00052,0.93219 -1.58722,0.144 -3.16613,-0.28347 -1.5789,-0.42735 -2.90224,-1.18794 -1.32335,-0.76063 -2.48737,-1.9098 -1.16403,-1.1492 -1.83853,-2.59317 -0.67449,-1.44397 -0.70485,-3.06191 -0.0166,-1.64198 0.93769,-3.30217 0.95422,-1.6602 2.36749,-2.44834 1.42713,-0.81222 3.01435,-0.95626 1.58723,-0.144 3.17995,0.25928 1.60657,0.3792 2.92992,1.13983 z m 15.14123,11.66033 q -0.43896,-0.42433 -0.78616,-0.0654 l -5.78676,5.98572 q -1.21521,1.25699 -0.88007,2.50741 0.3744,1.24978 1.93069,2.75433 1.55629,1.50456 2.79803,1.8172 1.28099,0.31181 2.49621,-0.945 l 5.78675,-5.98571 q 0.34723,-0.35905 -0.25137,-0.93781 l 0.34719,-0.35906 3.19238,3.08625 -0.34719,0.35906 q -0.47886,-0.46296 -0.82606,-0.10394 l -5.69032,5.88597 q -1.13805,1.17721 -2.22952,1.62743 -1.07218,0.43026 -2.19422,0.23319 -1.12202,-0.19691 -2.29392,-1.02107 -1.15193,-0.80485 -2.46879,-2.07791 -1.31686,-1.2731 -2.18011,-2.41644 -0.84331,-1.12411 -1.07804,-2.23884 -0.23475,-1.11474 0.15908,-2.20086 0.41309,-1.10604 1.55114,-2.28325 l 5.69032,-5.88593 q 0.34719,-0.35906 -0.21147,-0.89923 l 0.34723,-0.35906 3.27219,3.16343 z m 0.91181,20.28767 q 0.27806,0.44803 0.70249,0.18444 l 10.70521,-6.64403 q 0.42444,-0.26343 0.14638,-0.71142 l 0.42444,-0.26343 2.50247,4.03215 -0.42442,0.26343 q -0.11702,-0.18859 -0.35286,-0.0423 -0.18864,0.11717 -0.36756,0.88135 l -2.8267,11.12844 7.49836,-4.65373 q 0.42443,-0.26343 0.0439,-0.87651 l 0.42444,-0.26343 2.2098,3.56054 -0.42444,0.26343 q -0.27806,-0.44799 -0.70249,-0.18444 l -10.70521,6.64399 q -0.42443,0.26344 -0.14638,0.71146 l -0.42443,0.26344 -2.37078,-3.81993 0.42444,-0.26344 q 0.19026,0.30652 0.40247,0.17499 0.16505,-0.10242 0.30818,-0.71387 l 3.03487,-11.84557 -7.82848,4.85862 q -0.42443,0.26343 -0.0879,0.80576 l -0.42443,0.26343 -2.1659,-3.48979 z m 12.93011,24.39277 q -0.47284,0.16101 -0.27594,0.73905 l -0.47284,0.16101 -1.37842,-4.04542 0.47285,-0.16101 q 0.0627,0.18407 0.21248,0.27931 0.18505,0.11301 0.42146,0.034 l 10.45502,-3.5624 -1.47688,-4.33436 q -0.0806,-0.2366 -0.29246,-0.42811 -0.20296,-0.16554 -0.5707,-0.0401 l -0.16113,-0.47282 3.67765,-1.2531 0.16112,0.47282 q -0.36775,0.12548 -0.4275,0.38022 -0.0508,0.2812 0.0299,0.51761 l 3.97414,11.66335 q 0.0806,0.2366 0.2835,0.40184 0.21188,0.19162 0.57966,0.0661 l 0.16112,0.47282 -3.67764,1.25311 -0.16112,-0.47286 q 0.36774,-0.12548 0.41855,-0.40645 0.0598,-0.25512 -0.0208,-0.49134 l -1.47687,-4.33436 z m 16.19837,9.47732 -0.49523,0.0654 q -0.0325,-0.24756 -0.14423,-0.45687 -0.084,-0.21279 -0.35921,-0.17651 -0.16509,0.0227 -0.7471,0.49043 -0.55088,0.49251 -1.27984,1.12052 -0.69782,0.65186 -1.44703,1.33848 -0.74923,0.68663 -1.27985,1.12052 l 4.85423,2.63493 q 0.3592,0.17651 0.56993,0.28876 0.21075,0.11225 0.37584,0.0903 0.1926,-0.0265 0.21135,-0.30765 0.0223,-0.25474 -0.007,-0.47501 l 0.49525,-0.0654 0.63495,4.81489 -0.49524,0.0654 q -0.0291,-0.21997 -0.10942,-0.40547 -0.0529,-0.18898 -0.24703,-0.38733 -0.16297,-0.17461 -0.49826,-0.38214 -0.30418,-0.18369 -0.84296,-0.44867 l -7.24761,-3.80292 -4.89745,0.64584 q -0.49525,0.0654 -0.4118,0.69812 l -0.49525,0.0654 -0.57326,-4.34717 0.49523,-0.0654 q 0.0325,0.24756 0.16449,0.39821 0.15934,0.14703 0.40696,0.11415 l 4.89744,-0.64585 6.72846,-6.28978 q 0.24975,-0.22904 0.38791,-0.66701 0.14181,-0.41057 0.10553,-0.68572 l 0.49525,-0.0654 z" />
  </g>
</svg>
