<?xml version="1.0" encoding="UTF-8" standalone="no"?>
<!-- Created with Inkscape (http://www.inkscape.org/) -->

<svg
   width="41.34993mm"
   height="41.349934mm"
   viewBox="0 0 41.34993 41.349934"
   version="1.1"
   id="svg1"
   xml:space="preserve"
   xmlns="http://www.w3.org/2000/svg"
   xmlns:svg="http://www.w3.org/2000/svg"><defs
     id="defs1" /><g
     id="layer1"
     transform="translate(-95.999308,-56.297857)"><path
       id="path1-1"
       style="fill:#000000;stroke-width:0.00981139;stroke-linecap:round;stroke-linejoin:round"
       d="m 116.67402,56.297856 c -0.64004,0 -1.15859,0.159841 -1.15859,1.488281 0,0.93994 0.25956,2.212637 0.6382,2.876827 h -0.39377 c -0.12319,0 -0.15474,0.146505 -0.22273,0.272335 l -0.10748,0.199471 c -0.0749,0.13862 0.10922,0.30024 0.24494,0.30024 h 0.20568 c -0.052,0.0593 -0.0837,0.136758 -0.0837,0.222208 0,0.10119 0.0446,0.191505 0.11472,0.253215 H 115.625 c -0.1178,0 -0.2129,0.09463 -0.2129,0.21239 v 2.615344 a 12.324723,12.324723 0 0 0 -6.49935,2.688725 l -1.8464,-1.846916 c -0.0833,-0.0833 -0.21746,-0.08331 -0.30075,0 l -0.20258,0.202572 c 0.006,-0.0932 -0.0266,-0.188382 -0.0982,-0.259932 -0.0604,-0.0604 -0.1378,-0.09299 -0.21652,-0.09819 l 0.14572,-0.145727 c 0.096,-0.096 0.1122,-0.33993 -0.0387,-0.38499 l -0.21756,-0.06511 c -0.13705,-0.0409 -0.26274,-0.1223 -0.34985,-0.03514 l -0.27905,0.278536 c -0.20191,-0.73739 -0.9177,-1.820996 -1.58234,-2.485636 -0.93935,-0.93935 -1.41914,-0.685641 -1.87172,-0.233061 -0.45258,0.45257 -0.70629,0.93236 0.23306,1.87172 0.66464,0.66464 1.74772,1.380949 2.48512,1.582849 l -0.26716,0.267168 c -0.0871,0.0871 8.4e-4,0.210806 0.0351,0.350366 l 0.0553,0.226859 c 0.037,0.15159 0.28954,0.135314 0.38551,0.03927 l 0.14417,-0.144177 c 0.005,0.0787 0.0378,0.155578 0.0982,0.216008 0.0716,0.0716 0.16671,0.104135 0.25993,0.09819 l -0.20257,0.202572 c -0.0833,0.0833 -0.0833,0.217466 0,0.300756 l 1.8464,1.846916 a 12.324723,12.324723 0 0 0 -2.66702,6.498828 h -2.63653 c -0.1178,0 -0.21239,0.09515 -0.21239,0.212907 v 0.286288 c -0.0617,-0.0702 -0.15203,-0.114215 -0.25322,-0.114205 -0.0855,0 -0.16291,0.03172 -0.22221,0.08371 V 75.97314 c 0,-0.13571 -0.16212,-0.319856 -0.30075,-0.244946 l -0.19948,0.108004 c -0.12582,0.068 -0.27233,0.09904 -0.27233,0.222209 v 0.394291 c -0.664194,-0.37864 -1.93637,-0.638721 -2.87631,-0.638721 -1.32845,0 -1.488292,0.518546 -1.488282,1.158586 0,0.64004 0.159842,1.159092 1.488282,1.159102 0.93994,-1e-5 2.212126,-0.259554 2.87631,-0.638204 v 0.378272 c 0,0.1232 0.14957,0.147588 0.27233,0.222208 l 0.19948,0.12144 c 0.13332,0.0811 0.30024,-0.109236 0.30024,-0.244946 v -0.203606 c 0.0593,0.052 0.13727,0.08372 0.22272,0.08372 0.10119,0 0.19152,-0.04454 0.25322,-0.114721 v 0.286287 c 0,0.1178 0.0946,0.212907 0.21239,0.212907 h 2.63653 a 12.324723,12.324723 0 0 0 2.66753,6.498828 l -1.84691,1.846916 c -0.0833,0.0833 -0.0833,0.217467 0,0.300757 l 0.20257,0.202571 c -0.0932,-0.006 -0.18837,0.02658 -0.25993,0.09819 -0.0604,0.0604 -0.093,0.137288 -0.0982,0.216008 l -0.14572,-0.145728 c -0.096,-0.096 -0.34046,-0.111676 -0.38551,0.03927 l -0.0646,0.217558 c -0.0409,0.13705 -0.12275,0.26274 -0.0357,0.34985 l 0.27853,0.278536 c -0.7374,0.20191 -1.82048,0.917692 -2.48512,1.582332 -0.93936,0.93935 -0.68564,1.41914 -0.23306,1.87172 0.45258,0.45258 0.93237,0.706806 1.87172,-0.232544 0.66464,-0.66464 1.38044,-1.748236 1.58234,-2.485636 l 0.26768,0.267167 c 0.0871,0.0871 0.21029,-5.23e-4 0.34985,-0.03462 l 0.22738,-0.05529 c 0.15159,-0.0369 0.13475,-0.289536 0.0388,-0.385506 l -0.14417,-0.144177 c 0.0787,-0.005 0.15609,-0.03778 0.21652,-0.09819 0.0716,-0.0716 0.10414,-0.166703 0.0982,-0.259933 l 0.20258,0.202572 c 0.0833,0.0833 0.21745,0.0833 0.30075,0 l 1.8464,-1.846916 a 12.324723,12.324723 0 0 0 6.49935,2.688725 v 2.615344 c 0,0.11779 0.0951,0.21239 0.2129,0.21239 h 0.28629 c -0.0701,0.0617 -0.11472,0.152025 -0.11472,0.253215 0,0.0855 0.0317,0.162908 0.0837,0.222208 h -0.20568 c -0.13572,0 -0.31985,0.16162 -0.24494,0.30024 l 0.10748,0.199988 c 0.068,0.12582 0.0996,0.272335 0.22273,0.272335 h 0.39377 c -0.37864,0.66418 -0.6382,1.93637 -0.6382,2.87631 0,1.32844 0.51855,1.488281 1.15859,1.488281 0.64004,0 1.1591,-0.159841 1.1591,-1.488281 0,-0.93994 -0.26007,-2.21213 -0.63872,-2.87631 h 0.37879 c 0.1232,0 0.14758,-0.149585 0.2222,-0.272335 l 0.12144,-0.199988 c 0.081,-0.13333 -0.10923,-0.30024 -0.24494,-0.30024 h -0.20412 c 0.052,-0.0593 0.0837,-0.136748 0.0837,-0.222208 0,-0.10119 -0.044,-0.191515 -0.1142,-0.253215 h 0.28628 c 0.11779,0 0.21291,-0.09464 0.21291,-0.21239 v -2.615344 a 12.324723,12.324723 0 0 0 6.49883,-2.688725 l 1.84691,1.846916 c 0.0833,0.0833 0.21746,0.0833 0.30076,0 l 0.20257,-0.202572 c -0.006,0.0932 0.0261,0.188383 0.0977,0.259933 0.0604,0.0604 0.13781,0.09309 0.21653,0.09819 l -0.14418,0.144177 c -0.096,0.096 -0.11279,0.348546 0.0388,0.385506 l 0.22737,0.05529 c 0.13956,0.034 0.26273,0.121743 0.34985,0.03462 l 0.26769,-0.267167 c 0.2019,0.7374 0.91769,1.820996 1.58233,2.485636 0.93935,0.93935 1.41965,0.685124 1.87223,0.232544 0.45257,-0.45257 0.70629,-0.93237 -0.23306,-1.87172 -0.66464,-0.66464 -1.74824,-1.380422 -2.48563,-1.582332 l 0.27853,-0.278536 c 0.0871,-0.0871 0.006,-0.2128 -0.0351,-0.34985 l -0.0651,-0.217558 c -0.0451,-0.15098 -0.28953,-0.134727 -0.3855,-0.03876 l -0.14573,0.145728 c -0.005,-0.0787 -0.0378,-0.156105 -0.0982,-0.216525 -0.0716,-0.0716 -0.16618,-0.104135 -0.25941,-0.09819 l 0.20257,-0.202571 c 0.0833,-0.0833 0.0833,-0.217457 0,-0.300757 l -1.84692,-1.846399 a 12.324723,12.324723 0 0 0 2.66702,-6.499345 h 2.63705 c 0.1178,0 0.21239,-0.09515 0.21239,-0.212907 v -0.286287 c 0.0617,0.0701 0.15204,0.114721 0.25322,0.114721 0.0855,0 0.1629,-0.03172 0.2222,-0.08372 v 0.203606 c 0,0.13571 0.16691,0.326006 0.30025,0.244946 l 0.19947,-0.12144 c 0.12276,-0.0746 0.27234,-0.09903 0.27233,-0.222208 v -0.378272 c 0.66418,0.37865 1.93688,0.638204 2.87683,0.638204 1.32844,0 1.48828,-0.519062 1.48828,-1.159102 0,-0.64004 -0.15984,-1.158586 -1.48828,-1.158586 -0.93994,0 -2.21264,0.260081 -2.87683,0.638721 V 76.0584 c 0,-0.12319 -0.14653,-0.154199 -0.27233,-0.222209 l -0.19947,-0.108004 c -0.13862,-0.0749 -0.30024,0.109246 -0.30025,0.244946 v 0.206189 c -0.0593,-0.0521 -0.13675,-0.08371 -0.2222,-0.08371 -0.10119,0 -0.19152,0.04404 -0.25322,0.114205 v -0.286288 c 0,-0.11779 -0.0946,-0.212907 -0.21239,-0.212907 h -2.63343 a 12.324723,12.324723 0 0 0 -2.65617,-6.513814 l 1.83245,-1.83193 c 0.0833,-0.0833 0.0833,-0.217456 0,-0.300756 l -0.20257,-0.202572 c 0.0932,0.006 0.18786,-0.02658 0.25941,-0.09819 0.0604,-0.0604 0.0936,-0.137288 0.0987,-0.216008 l 0.14418,0.143661 c 0.096,0.096 0.34802,0.112792 0.38499,-0.03876 l 0.0558,-0.227376 c 0.034,-0.13957 0.1223,-0.262739 0.0351,-0.349849 l -0.26768,-0.267168 c 0.73739,-0.2019 1.82098,-0.918209 2.48563,-1.582849 0.93934,-0.93935 0.68513,-1.41914 0.23255,-1.87172 -0.45257,-0.45258 -0.93236,-0.706289 -1.87172,0.233061 -0.66464,0.66464 -1.38042,1.748246 -1.58233,2.485636 l -0.27854,-0.278536 c -0.0871,-0.0871 -0.21281,-0.0065 -0.34985,0.03462 l -0.21756,0.06511 c -0.15098,0.0451 -0.13479,0.289536 -0.0388,0.385506 l 0.14522,0.145727 c -0.0787,0.005 -0.1561,0.03779 -0.21653,0.09819 -0.0716,0.0716 -0.10362,0.166185 -0.0977,0.259415 l -0.20257,-0.202571 c -0.0833,-0.0833 -0.21747,-0.0833 -0.30076,0 l -1.83244,1.832446 a 12.324723,12.324723 0 0 0 -6.5133,-2.698027 v -2.591056 c 0,-0.1178 -0.0952,-0.212907 -0.21291,-0.212907 h -0.28628 c 0.0701,-0.0617 0.1142,-0.151508 0.1142,-0.252698 0,-0.0855 -0.0317,-0.163425 -0.0837,-0.222725 h 0.20412 c 0.13571,0 0.32599,-0.166393 0.24494,-0.299723 l -0.12144,-0.199988 c -0.0746,-0.12275 -0.099,-0.272335 -0.2222,-0.272335 h -0.37879 c 0.37865,-0.66418 0.63872,-1.93636 0.63872,-2.87631 0,-1.32844 -0.51906,-1.488281 -1.1591,-1.488281 z m 5.1e-4,9.347233 c 0.40516,0 0.81049,0.01031 1.01493,0.03101 1.94128,0.19696 3.59962,0.773906 5.17539,1.800406 0.6855,0.44655 1.1774,0.844837 1.78439,1.445907 0.61303,0.60704 1.04106,1.13018 1.50068,1.83193 1.04024,1.58822 1.61964,3.245329 1.81798,5.200199 0.0415,0.40887 0.0415,1.62098 0,2.02985 -0.19696,1.9413 -0.7734,3.599118 -1.79989,5.174878 -0.44656,0.6855 -0.84535,1.177397 -1.44642,1.784387 -1.20325,1.21513 -2.60547,2.11313 -4.2075,2.69441 -0.82816,0.30048 -1.73146,0.505728 -2.67219,0.607198 -0.35031,0.0378 -1.46853,0.06939 -1.73788,0.04909 -0.46479,-0.035 -0.8041,-0.06956 -1.09089,-0.111621 -2.10902,-0.30959 -4.07908,-1.208586 -5.71386,-2.607076 -0.34958,-0.29905 -0.95688,-0.906069 -1.24953,-1.249019 -1.21465,-1.42341 -2.08687,-3.19123 -2.46135,-4.98936 -0.17762,-0.85284 -0.23926,-1.463054 -0.23926,-2.367814 0,-0.70275 0.0239,-1.055467 0.11265,-1.661397 0.30837,-2.10655 1.20808,-4.07961 2.60656,-5.71438 0.68284,-0.79821 1.52854,-1.538814 2.41639,-2.117184 1.57577,-1.0265 3.2341,-1.603446 5.17539,-1.800406 0.20444,-0.0207 0.60925,-0.03101 1.01441,-0.03101 z m -0.27905,0.297139 -0.20929,0.0093 c -2.3845,0.10864 -4.59569,0.952818 -6.48798,2.477368 -0.40755,0.32834 -1.23486,1.156179 -1.56321,1.563729 -1.52454,1.89229 -2.36923,4.103486 -2.47788,6.487976 l -0.009,0.20929 h 3.59513 3.59565 l 0.14831,0.112654 0.14883,0.112138 1.1746,0.001 a 2.3906586,2.3906586 0 0 0 -0.004,0.05788 2.3906586,2.3906586 0 0 0 0.003,0.04651 h -1.16117 l -0.15503,0.114205 -0.15503,0.114205 h -3.59513 -3.59565 l 0.01,0.209289 c 0.10865,2.38449 0.95335,4.595706 2.47789,6.487976 0.32835,0.40756 1.15566,1.235369 1.56321,1.563729 1.84777,1.48867 3.99752,2.329033 6.31383,2.468583 0.17619,0.0106 0.33447,0.02115 0.35191,0.02325 0.0252,0.002 0.032,-0.761621 0.0326,-3.744991 h -5.2e-4 l 10e-4,-3.748092 0.11368,-0.150378 0.11318,-0.149862 V 79.35898 a 2.3906586,2.3906586 0 0 0 0.0729,0.0052 2.3906586,2.3906586 0 0 0 0.0279,-0.0021 v 0.845426 l 0.11369,0.150379 0.11369,0.150378 0.001,3.743958 5.2e-4,3.743957 0.20929,-0.0088 c 0.11511,-0.005 0.39171,-0.02728 0.61495,-0.04858 v 5.17e-4 c 2.1358,-0.20378 4.13908,-1.032856 5.87303,-2.429826 0.40755,-0.32836 1.23486,-1.155652 1.56321,-1.563212 1.52455,-1.89227 2.36923,-4.103486 2.47788,-6.487976 l 0.01,-0.209289 -3.74395,-10e-4 -3.74396,-5.17e-4 -0.15038,-0.113688 -0.15038,-0.113171 -0.86971,-5.17e-4 a 2.3730835,2.3730835 0 0 1 -2.31821,2.321822 V 78.61382 77.019602 h 1.59422 0.76533 a 2.3906586,2.3906586 0 0 0 0.003,-0.04599 2.3906586,2.3906586 0 0 0 -0.002,-0.05529 h 0.8263 l 0.15038,-0.113171 0.15038,-0.113171 3.74396,-0.001 3.74396,-10e-4 -0.009,-0.208773 c -0.10866,-2.38451 -0.95334,-4.596203 -2.47788,-6.488493 -0.32836,-0.40756 -1.15618,-1.234862 -1.56373,-1.563212 -1.89228,-1.52454 -4.10297,-2.369235 -6.48746,-2.477885 l -0.20981,-0.0093 v 3.59513 3.595646 l -0.1142,0.155029 -0.11421,0.155029 v 1.140499 a 2.3906586,2.3906586 0 0 0 -0.0284,-5.17e-4 2.3906586,2.3906586 0 0 0 -0.0729,0.0052 v -1.14515 l -0.11421,-0.155029 -0.1142,-0.155029 v -3.595646 z m -0.75189,0.950847 c -0.0731,0.26562 -0.11576,0.684744 -0.11576,1.361674 0,1.34239 0.16445,3.360451 0.41755,4.891691 a 3.9041049,3.9041049 0 0 0 -1.49759,0.628902 c -0.90387,-1.26293 -2.21734,-2.810071 -3.16828,-3.761011 -0.46912,-0.46911 -0.79364,-0.736062 -1.03198,-0.874882 a 10.181292,10.181292 0 0 1 5.39606,-2.246374 z m 2.0624,0 a 10.181292,10.181292 0 0 1 5.39606,2.247408 c -0.23861,0.13826 -0.56193,0.402758 -1.03302,0.873848 -0.94952,0.94953 -2.26082,2.493396 -3.16466,3.755326 a 3.9041049,3.9041049 0 0 0 -1.50068,-0.631486 c 0.2524,-1.53033 0.41703,-3.543362 0.41703,-4.883422 0,-0.67442 -0.0421,-1.095854 -0.11473,-1.361674 z m -8.91832,3.718119 c 0.14015,0.2377 0.40665,0.560117 0.87075,1.024227 0.95322,0.95322 2.5052,2.27107 3.7698,3.175 a 3.9041049,3.9041049 0 0 0 -0.5948,1.498616 c -1.53595,-0.25727 -3.57937,-0.42478 -4.93458,-0.42478 -0.62965,0 -1.03991,0.03594 -1.30845,0.09974 a 10.181292,10.181292 0 0 1 2.19728,-5.372799 z m 15.7732,0 a 10.181292,10.181292 0 0 1 2.19728,5.375382 c -0.26839,-0.0646 -0.67472,-0.102319 -1.30844,-0.102319 -1.35355,0 -3.39401,0.167007 -4.92942,0.423747 a 3.9041049,3.9041049 0 0 0 -0.59738,-1.500167 c 1.26401,-0.90389 2.81431,-2.220026 3.7667,-3.172416 0.46424,-0.46423 0.73114,-0.786507 0.87126,-1.024227 z m -7.83466,3.992521 a 2.3730835,2.3730835 0 0 1 2.31717,2.314071 h -0.72347 -1.5937 v -1.737362 z m -0.10232,0.0057 v 0.571542 l -5.2e-4,1.737361 -1.74408,-0.0021 -0.56637,-5.16e-4 a 2.3730835,2.3730835 0 0 1 2.31097,-2.30632 z m -2.31304,2.410706 h 0.57568 1.73736 v 1.593701 0.72192 a 2.3730835,2.3730835 0 0 1 -2.31304,-2.315621 z m -1.45366,0.727604 a 3.9041049,3.9041049 0 0 0 0.62736,1.462443 c -1.27411,0.90423 -2.85875,2.247411 -3.82613,3.214791 -0.42029,0.42029 -0.68213,0.726844 -0.83199,0.957564 a 10.181292,10.181292 0 0 1 -2.22467,-5.303035 c 0.26884,0.0619 0.67711,0.09715 1.29708,0.09715 1.36226,0 3.41995,-0.169265 4.95835,-0.428915 z m 7.63365,0 c 1.53841,0.25961 3.59673,0.428915 4.95887,0.428915 0.61978,0 1.02771,-0.03473 1.29656,-0.09664 a 10.181292,10.181292 0 0 1 -2.22622,5.304069 c -0.1493,-0.2313 -0.40717,-0.535845 -0.83044,-0.959115 -0.96734,-0.96734 -2.55152,-2.310501 -3.82561,-3.214791 a 3.9041049,3.9041049 0 0 0 0.62684,-1.462443 z m -5.98982,2.462899 a 3.9041049,3.9041049 0 0 0 1.46296,0.593245 c -0.26377,1.54249 -0.43615,3.626802 -0.43615,5.001762 0,0.58048 0.0307,0.975429 0.0853,1.244369 a 10.181292,10.181292 0 0 1 -5.28443,-2.177128 c 0.23002,-0.1505 0.53431,-0.410293 0.95084,-0.826823 0.96976,-0.96977 2.31731,-2.559765 3.22151,-3.835425 z m 4.34651,0 c 0.90427,1.27569 2.25178,2.865695 3.2215,3.835425 0.41653,0.41653 0.72082,0.676323 0.95085,0.826823 A 10.181292,10.181292 0 0 1 117.73493,87.05 c 0.0547,-0.26894 0.0858,-0.663889 0.0858,-1.244369 0,-1.37496 -0.17233,-3.459272 -0.43615,-5.001762 a 3.9041049,3.9041049 0 0 0 1.46296,-0.593245 z" /></g></svg>
